<mxfile modified="2022-11-16T02:45:29.630Z" host="app.diagrams.net" agent="5.0 (Windows NT 10.0; Win64; x64) AppleWebKit/537.36 (KHTML, like Gecko) Chrome/107.0.0.0 Safari/537.36" etag="0RPoD2Gifx5CmEyLBSW_" version="20.5.3" type="github">
  <diagram id="Ht1M8jgEwFfnCIfOTk4-" name="Page-1">
    <mxGraphModel dx="1066" dy="-743" grid="1" gridSize="10" guides="1" tooltips="1" connect="1" arrows="1" fold="1" page="1" pageScale="1" pageWidth="827" pageHeight="1169" math="0" shadow="0">
      <root>
        <mxCell id="0" />
        <mxCell id="1" parent="0" />
        <mxCell id="lT2CSq7eGdLM_32b_8D1-33" value="&lt;span style=&quot;color: rgba(0, 0, 0, 0); font-family: monospace; font-size: 0px; text-align: start;&quot;&gt;%3CmxGraphModel%3E%3Croot%3E%3CmxCell%20id%3D%220%22%2F%3E%3CmxCell%20id%3D%221%22%20parent%3D%220%22%2F%3E%3CmxCell%20id%3D%222%22%20value%3D%22%22%20style%3D%22rounded%3D1%3BwhiteSpace%3Dwrap%3Bhtml%3D1%3BfontColor%3D%23000000%3Bdashed%3D1%3BfillColor%3Dnone%3B%22%20vertex%3D%221%22%20parent%3D%221%22%3E%3CmxGeometry%20x%3D%22105.51%22%20y%3D%221280%22%20width%3D%22160%22%20height%3D%22490%22%20as%3D%22geometry%22%2F%3E%3C%2FmxCell%3E%3C%2Froot%3E%3C%2FmxGraphModel%3E&lt;/span&gt;&lt;span style=&quot;color: rgba(0, 0, 0, 0); font-family: monospace; font-size: 0px; text-align: start;&quot;&gt;%3CmxGraphModel%3E%3Croot%3E%3CmxCell%20id%3D%220%22%2F%3E%3CmxCell%20id%3D%221%22%20parent%3D%220%22%2F%3E%3CmxCell%20id%3D%222%22%20value%3D%22%22%20style%3D%22rounded%3D1%3BwhiteSpace%3Dwrap%3Bhtml%3D1%3BfontColor%3D%23000000%3Bdashed%3D1%3BfillColor%3Dnone%3B%22%20vertex%3D%221%22%20parent%3D%221%22%3E%3CmxGeometry%20x%3D%22105.51%22%20y%3D%221280%22%20width%3D%22160%22%20height%3D%22490%22%20as%3D%22geometry%22%2F%3E%3C%2FmxCell%3E%3C%2Froot%3E%3C%2FmxGraphModel%3E&lt;/span&gt;" style="rounded=1;whiteSpace=wrap;html=1;fontColor=#000000;dashed=1;fillColor=none;" parent="1" vertex="1">
          <mxGeometry x="105.51" y="1280" width="160" height="490" as="geometry" />
        </mxCell>
        <mxCell id="jZVaUwOg5UY3L9NAnvdq-71" value="AWS Cloud" style="points=[[0,0],[0.25,0],[0.5,0],[0.75,0],[1,0],[1,0.25],[1,0.5],[1,0.75],[1,1],[0.75,1],[0.5,1],[0.25,1],[0,1],[0,0.75],[0,0.5],[0,0.25]];outlineConnect=0;gradientColor=none;html=1;whiteSpace=wrap;fontSize=12;fontStyle=0;shape=mxgraph.aws4.group;grIcon=mxgraph.aws4.group_aws_cloud_alt;strokeColor=#232F3E;fillColor=none;verticalAlign=top;align=left;spacingLeft=30;fontColor=#232F3E;dashed=0;labelBackgroundColor=none;container=1;pointerEvents=0;collapsible=0;recursiveResize=0;" parent="1" vertex="1">
          <mxGeometry x="293" y="2088.5" width="1097" height="757" as="geometry" />
        </mxCell>
        <mxCell id="jZVaUwOg5UY3L9NAnvdq-109" style="edgeStyle=elbowEdgeStyle;rounded=0;orthogonalLoop=1;jettySize=auto;html=1;endArrow=open;endFill=0;strokeColor=#545B64;strokeWidth=2;fontSize=14;" parent="1" target="jZVaUwOg5UY3L9NAnvdq-72" edge="1">
          <mxGeometry relative="1" as="geometry">
            <mxPoint x="270" y="2345.5" as="sourcePoint" />
            <Array as="points">
              <mxPoint x="369" y="2285.5" />
            </Array>
          </mxGeometry>
        </mxCell>
        <mxCell id="jZVaUwOg5UY3L9NAnvdq-110" style="edgeStyle=elbowEdgeStyle;rounded=0;orthogonalLoop=1;jettySize=auto;html=1;endArrow=open;endFill=0;strokeColor=#545B64;strokeWidth=2;fontSize=14;" parent="1" target="jZVaUwOg5UY3L9NAnvdq-74" edge="1">
          <mxGeometry relative="1" as="geometry">
            <mxPoint x="270" y="2381.5" as="sourcePoint" />
          </mxGeometry>
        </mxCell>
        <mxCell id="jZVaUwOg5UY3L9NAnvdq-111" value="" style="edgeStyle=elbowEdgeStyle;rounded=0;orthogonalLoop=1;jettySize=auto;html=1;endArrow=open;endFill=0;strokeColor=#545B64;strokeWidth=2;fontSize=14;" parent="1" source="jZVaUwOg5UY3L9NAnvdq-74" target="jZVaUwOg5UY3L9NAnvdq-75" edge="1">
          <mxGeometry relative="1" as="geometry" />
        </mxCell>
        <mxCell id="jZVaUwOg5UY3L9NAnvdq-112" value="" style="edgeStyle=elbowEdgeStyle;rounded=0;orthogonalLoop=1;jettySize=auto;html=1;endArrow=open;endFill=0;strokeColor=#545B64;strokeWidth=2;fontSize=14;" parent="1" source="jZVaUwOg5UY3L9NAnvdq-75" target="jZVaUwOg5UY3L9NAnvdq-80" edge="1">
          <mxGeometry relative="1" as="geometry" />
        </mxCell>
        <mxCell id="jZVaUwOg5UY3L9NAnvdq-116" value="" style="edgeStyle=elbowEdgeStyle;rounded=0;orthogonalLoop=1;jettySize=auto;html=1;endArrow=open;endFill=0;strokeColor=#545B64;strokeWidth=2;fontSize=14;" parent="1" source="jZVaUwOg5UY3L9NAnvdq-77" target="jZVaUwOg5UY3L9NAnvdq-76" edge="1">
          <mxGeometry relative="1" as="geometry" />
        </mxCell>
        <mxCell id="jZVaUwOg5UY3L9NAnvdq-117" value="" style="edgeStyle=elbowEdgeStyle;rounded=0;orthogonalLoop=1;jettySize=auto;html=1;endArrow=open;endFill=0;strokeColor=#545B64;strokeWidth=2;fontSize=14;" parent="1" source="jZVaUwOg5UY3L9NAnvdq-77" target="jZVaUwOg5UY3L9NAnvdq-78" edge="1">
          <mxGeometry relative="1" as="geometry" />
        </mxCell>
        <mxCell id="jZVaUwOg5UY3L9NAnvdq-119" value="" style="edgeStyle=elbowEdgeStyle;rounded=0;orthogonalLoop=1;jettySize=auto;html=1;endArrow=open;endFill=0;strokeColor=#545B64;strokeWidth=2;fontSize=14;" parent="1" source="jZVaUwOg5UY3L9NAnvdq-78" target="jZVaUwOg5UY3L9NAnvdq-91" edge="1">
          <mxGeometry relative="1" as="geometry">
            <Array as="points">
              <mxPoint x="1200" y="2195.5" />
            </Array>
          </mxGeometry>
        </mxCell>
        <mxCell id="jZVaUwOg5UY3L9NAnvdq-123" value="" style="edgeStyle=orthogonalEdgeStyle;rounded=0;orthogonalLoop=1;jettySize=auto;html=1;endArrow=open;endFill=0;strokeColor=#545B64;strokeWidth=2;fontSize=14;" parent="1" source="jZVaUwOg5UY3L9NAnvdq-78" target="jZVaUwOg5UY3L9NAnvdq-93" edge="1">
          <mxGeometry relative="1" as="geometry">
            <Array as="points">
              <mxPoint x="1200" y="2235.5" />
              <mxPoint x="1200" y="2258.5" />
            </Array>
          </mxGeometry>
        </mxCell>
        <mxCell id="jZVaUwOg5UY3L9NAnvdq-113" value="" style="edgeStyle=elbowEdgeStyle;rounded=0;orthogonalLoop=1;jettySize=auto;html=1;endArrow=open;endFill=0;strokeColor=#545B64;strokeWidth=2;fontSize=14;" parent="1" source="jZVaUwOg5UY3L9NAnvdq-80" target="jZVaUwOg5UY3L9NAnvdq-81" edge="1">
          <mxGeometry relative="1" as="geometry" />
        </mxCell>
        <mxCell id="jZVaUwOg5UY3L9NAnvdq-114" value="" style="edgeStyle=elbowEdgeStyle;rounded=0;orthogonalLoop=1;jettySize=auto;html=1;endArrow=open;endFill=0;strokeColor=#545B64;strokeWidth=2;fontSize=14;" parent="1" source="jZVaUwOg5UY3L9NAnvdq-81" target="jZVaUwOg5UY3L9NAnvdq-82" edge="1">
          <mxGeometry relative="1" as="geometry" />
        </mxCell>
        <mxCell id="jZVaUwOg5UY3L9NAnvdq-115" value="" style="edgeStyle=elbowEdgeStyle;rounded=0;orthogonalLoop=1;jettySize=auto;html=1;endArrow=open;endFill=0;strokeColor=#545B64;strokeWidth=2;fontSize=14;" parent="1" source="jZVaUwOg5UY3L9NAnvdq-81" target="jZVaUwOg5UY3L9NAnvdq-77" edge="1">
          <mxGeometry relative="1" as="geometry" />
        </mxCell>
        <mxCell id="jZVaUwOg5UY3L9NAnvdq-128" value="" style="edgeStyle=elbowEdgeStyle;rounded=0;orthogonalLoop=1;jettySize=auto;html=1;endArrow=open;endFill=0;strokeColor=#545B64;strokeWidth=2;fontSize=14;" parent="1" source="jZVaUwOg5UY3L9NAnvdq-81" target="jZVaUwOg5UY3L9NAnvdq-89" edge="1">
          <mxGeometry relative="1" as="geometry" />
        </mxCell>
        <mxCell id="jZVaUwOg5UY3L9NAnvdq-126" value="" style="edgeStyle=elbowEdgeStyle;rounded=0;orthogonalLoop=1;jettySize=auto;html=1;endArrow=open;endFill=0;strokeColor=#545B64;strokeWidth=2;fontSize=14;" parent="1" source="jZVaUwOg5UY3L9NAnvdq-82" target="jZVaUwOg5UY3L9NAnvdq-97" edge="1">
          <mxGeometry relative="1" as="geometry">
            <Array as="points">
              <mxPoint x="1109" y="2565.5" />
            </Array>
          </mxGeometry>
        </mxCell>
        <mxCell id="jZVaUwOg5UY3L9NAnvdq-138" value="" style="edgeStyle=elbowEdgeStyle;rounded=0;orthogonalLoop=1;jettySize=auto;html=1;endArrow=open;endFill=0;strokeColor=#545B64;strokeWidth=2;fontSize=14;elbow=vertical;" parent="1" source="jZVaUwOg5UY3L9NAnvdq-84" edge="1">
          <mxGeometry relative="1" as="geometry">
            <mxPoint x="270" y="2720.5" as="targetPoint" />
          </mxGeometry>
        </mxCell>
        <mxCell id="jZVaUwOg5UY3L9NAnvdq-132" value="" style="edgeStyle=elbowEdgeStyle;rounded=0;orthogonalLoop=1;jettySize=auto;html=1;endArrow=open;endFill=0;strokeColor=#545B64;strokeWidth=2;fontSize=14;" parent="1" source="jZVaUwOg5UY3L9NAnvdq-85" target="jZVaUwOg5UY3L9NAnvdq-87" edge="1">
          <mxGeometry relative="1" as="geometry" />
        </mxCell>
        <mxCell id="jZVaUwOg5UY3L9NAnvdq-140" value="" style="edgeStyle=elbowEdgeStyle;rounded=0;orthogonalLoop=1;jettySize=auto;html=1;endArrow=open;endFill=0;strokeColor=#545B64;strokeWidth=2;fontSize=14;" parent="1" edge="1">
          <mxGeometry relative="1" as="geometry">
            <mxPoint x="502" y="2719.5" as="sourcePoint" />
            <mxPoint x="270" y="2644.5" as="targetPoint" />
            <Array as="points">
              <mxPoint x="440" y="2684.5" />
            </Array>
          </mxGeometry>
        </mxCell>
        <mxCell id="jZVaUwOg5UY3L9NAnvdq-160" value="" style="edgeStyle=elbowEdgeStyle;rounded=0;orthogonalLoop=1;jettySize=auto;html=1;endArrow=open;endFill=0;strokeColor=#545B64;strokeWidth=2;fontSize=14;" parent="1" edge="1">
          <mxGeometry relative="1" as="geometry">
            <mxPoint x="502" y="2720" as="sourcePoint" />
            <mxPoint x="408" y="2720" as="targetPoint" />
          </mxGeometry>
        </mxCell>
        <mxCell id="jZVaUwOg5UY3L9NAnvdq-136" value="" style="edgeStyle=elbowEdgeStyle;rounded=0;orthogonalLoop=1;jettySize=auto;html=1;endArrow=open;endFill=0;strokeColor=#545B64;strokeWidth=2;fontSize=14;" parent="1" source="jZVaUwOg5UY3L9NAnvdq-87" target="jZVaUwOg5UY3L9NAnvdq-75" edge="1">
          <mxGeometry relative="1" as="geometry" />
        </mxCell>
        <mxCell id="jZVaUwOg5UY3L9NAnvdq-142" value="" style="edgeStyle=elbowEdgeStyle;rounded=0;orthogonalLoop=1;jettySize=auto;html=1;endArrow=open;endFill=0;strokeColor=#545B64;strokeWidth=2;fontSize=14;" parent="1" source="jZVaUwOg5UY3L9NAnvdq-88" target="jZVaUwOg5UY3L9NAnvdq-86" edge="1">
          <mxGeometry relative="1" as="geometry" />
        </mxCell>
        <mxCell id="jZVaUwOg5UY3L9NAnvdq-144" value="" style="edgeStyle=elbowEdgeStyle;rounded=0;orthogonalLoop=1;jettySize=auto;html=1;endArrow=open;endFill=0;strokeColor=#545B64;strokeWidth=2;fontSize=14;" parent="1" source="jZVaUwOg5UY3L9NAnvdq-90" target="jZVaUwOg5UY3L9NAnvdq-88" edge="1">
          <mxGeometry relative="1" as="geometry">
            <mxPoint x="878" y="2875.5" as="targetPoint" />
          </mxGeometry>
        </mxCell>
        <mxCell id="jZVaUwOg5UY3L9NAnvdq-121" value="" style="edgeStyle=elbowEdgeStyle;rounded=0;orthogonalLoop=1;jettySize=auto;html=1;endArrow=open;endFill=0;strokeColor=#545B64;strokeWidth=2;fontSize=14;" parent="1" source="jZVaUwOg5UY3L9NAnvdq-91" target="jZVaUwOg5UY3L9NAnvdq-92" edge="1">
          <mxGeometry relative="1" as="geometry" />
        </mxCell>
        <mxCell id="jZVaUwOg5UY3L9NAnvdq-147" value="" style="edgeStyle=elbowEdgeStyle;rounded=0;orthogonalLoop=1;jettySize=auto;html=1;endArrow=open;endFill=0;strokeColor=#545B64;strokeWidth=2;fontSize=14;" parent="1" source="jZVaUwOg5UY3L9NAnvdq-97" target="jZVaUwOg5UY3L9NAnvdq-98" edge="1">
          <mxGeometry relative="1" as="geometry" />
        </mxCell>
        <mxCell id="jZVaUwOg5UY3L9NAnvdq-155" value="" style="edgeStyle=elbowEdgeStyle;rounded=0;orthogonalLoop=1;jettySize=auto;html=1;endArrow=open;endFill=0;strokeColor=#545B64;strokeWidth=2;fontSize=14;" parent="1" source="jZVaUwOg5UY3L9NAnvdq-97" target="jZVaUwOg5UY3L9NAnvdq-96" edge="1">
          <mxGeometry relative="1" as="geometry">
            <mxPoint x="1420" y="2467.5" as="targetPoint" />
          </mxGeometry>
        </mxCell>
        <mxCell id="jZVaUwOg5UY3L9NAnvdq-146" value="" style="edgeStyle=elbowEdgeStyle;rounded=0;orthogonalLoop=1;jettySize=auto;html=1;endArrow=open;endFill=0;strokeColor=#545B64;strokeWidth=2;fontSize=14;" parent="1" source="jZVaUwOg5UY3L9NAnvdq-98" target="jZVaUwOg5UY3L9NAnvdq-90" edge="1">
          <mxGeometry relative="1" as="geometry" />
        </mxCell>
        <mxCell id="jZVaUwOg5UY3L9NAnvdq-151" value="" style="edgeStyle=elbowEdgeStyle;rounded=0;orthogonalLoop=1;jettySize=auto;html=1;endArrow=open;endFill=0;strokeColor=#545B64;strokeWidth=2;fontSize=14;" parent="1" source="jZVaUwOg5UY3L9NAnvdq-99" target="jZVaUwOg5UY3L9NAnvdq-97" edge="1">
          <mxGeometry relative="1" as="geometry" />
        </mxCell>
        <mxCell id="jZVaUwOg5UY3L9NAnvdq-149" value="" style="rounded=0;orthogonalLoop=1;jettySize=auto;html=1;endArrow=open;endFill=0;strokeColor=#545B64;strokeWidth=2;fontSize=14;" parent="1" source="jZVaUwOg5UY3L9NAnvdq-100" target="jZVaUwOg5UY3L9NAnvdq-97" edge="1">
          <mxGeometry relative="1" as="geometry" />
        </mxCell>
        <mxCell id="jZVaUwOg5UY3L9NAnvdq-124" value="" style="edgeStyle=elbowEdgeStyle;rounded=0;orthogonalLoop=1;jettySize=auto;html=1;endArrow=open;endFill=0;strokeColor=#545B64;strokeWidth=2;fontSize=14;" parent="1" source="jZVaUwOg5UY3L9NAnvdq-78" target="jZVaUwOg5UY3L9NAnvdq-94" edge="1">
          <mxGeometry relative="1" as="geometry">
            <mxPoint x="1138" y="2245" as="sourcePoint" />
            <mxPoint x="1520.2117381489843" y="2308.5" as="targetPoint" />
            <Array as="points">
              <mxPoint x="1200" y="2295.5" />
            </Array>
          </mxGeometry>
        </mxCell>
        <mxCell id="jZVaUwOg5UY3L9NAnvdq-129" style="edgeStyle=elbowEdgeStyle;rounded=0;orthogonalLoop=1;jettySize=auto;html=1;endArrow=open;endFill=0;strokeColor=#545B64;strokeWidth=2;fontSize=14;exitX=1;exitY=0.5;exitDx=0;exitDy=0;elbow=vertical;" parent="1" source="jZVaUwOg5UY3L9NAnvdq-62" target="jZVaUwOg5UY3L9NAnvdq-83" edge="1">
          <mxGeometry relative="1" as="geometry">
            <mxPoint x="250" y="2425.5" as="sourcePoint" />
            <mxPoint x="512" y="2391.5" as="targetPoint" />
          </mxGeometry>
        </mxCell>
        <mxCell id="jZVaUwOg5UY3L9NAnvdq-130" style="edgeStyle=elbowEdgeStyle;rounded=0;orthogonalLoop=1;jettySize=auto;html=1;endArrow=open;endFill=0;strokeColor=#545B64;strokeWidth=2;fontSize=14;" parent="1" target="jZVaUwOg5UY3L9NAnvdq-85" edge="1">
          <mxGeometry relative="1" as="geometry">
            <mxPoint x="270" y="2415.5" as="sourcePoint" />
            <mxPoint x="512" y="2391.5" as="targetPoint" />
            <Array as="points">
              <mxPoint x="440" y="2475.5" />
            </Array>
          </mxGeometry>
        </mxCell>
        <mxCell id="jZVaUwOg5UY3L9NAnvdq-158" style="edgeStyle=elbowEdgeStyle;rounded=0;orthogonalLoop=1;jettySize=auto;html=1;endArrow=open;endFill=0;strokeColor=#545B64;strokeWidth=2;fontSize=14;" parent="1" target="jZVaUwOg5UY3L9NAnvdq-73" edge="1">
          <mxGeometry relative="1" as="geometry">
            <mxPoint x="270" y="2345.5" as="sourcePoint" />
            <mxPoint x="379" y="2253.5" as="targetPoint" />
            <Array as="points">
              <mxPoint x="460" y="2275.5" />
            </Array>
          </mxGeometry>
        </mxCell>
        <mxCell id="-QjtrjUzRDEMRZ5MF8oH-46" value="" style="rounded=0;whiteSpace=wrap;html=1;fillColor=#EAEDED;fontSize=22;fontColor=#FFFFFF;strokeColor=none;labelBackgroundColor=none;" parent="1" vertex="1">
          <mxGeometry x="1574.5" y="2000.5" width="539" height="1080" as="geometry" />
        </mxCell>
        <mxCell id="-QjtrjUzRDEMRZ5MF8oH-36" value="1" style="rounded=1;whiteSpace=wrap;html=1;fillColor=#007CBD;strokeColor=none;fontColor=#FFFFFF;fontStyle=1;fontSize=22;labelBackgroundColor=none;" parent="1" vertex="1">
          <mxGeometry x="1593" y="2013" width="40" height="38" as="geometry" />
        </mxCell>
        <mxCell id="-QjtrjUzRDEMRZ5MF8oH-37" value="2" style="rounded=1;whiteSpace=wrap;html=1;fillColor=#007CBD;strokeColor=none;fontColor=#FFFFFF;fontStyle=1;fontSize=22;labelBackgroundColor=none;" parent="1" vertex="1">
          <mxGeometry x="1591.5" y="2135" width="40" height="38" as="geometry" />
        </mxCell>
        <mxCell id="-QjtrjUzRDEMRZ5MF8oH-38" value="3" style="rounded=1;whiteSpace=wrap;html=1;fillColor=#007CBD;strokeColor=none;fontColor=#FFFFFF;fontStyle=1;fontSize=22;labelBackgroundColor=none;" parent="1" vertex="1">
          <mxGeometry x="1591.5" y="2255" width="40" height="38" as="geometry" />
        </mxCell>
        <mxCell id="-QjtrjUzRDEMRZ5MF8oH-39" value="4" style="rounded=1;whiteSpace=wrap;html=1;fillColor=#007CBD;strokeColor=none;fontColor=#FFFFFF;fontStyle=1;fontSize=22;labelBackgroundColor=none;" parent="1" vertex="1">
          <mxGeometry x="1591.5" y="2369" width="40" height="38" as="geometry" />
        </mxCell>
        <mxCell id="-QjtrjUzRDEMRZ5MF8oH-40" value="5" style="rounded=1;whiteSpace=wrap;html=1;fillColor=#007CBD;strokeColor=none;fontColor=#FFFFFF;fontStyle=1;fontSize=22;labelBackgroundColor=none;" parent="1" vertex="1">
          <mxGeometry x="1593" y="2486" width="40" height="38" as="geometry" />
        </mxCell>
        <mxCell id="-QjtrjUzRDEMRZ5MF8oH-41" value="6" style="rounded=1;whiteSpace=wrap;html=1;fillColor=#007CBD;strokeColor=none;fontColor=#FFFFFF;fontStyle=1;fontSize=22;labelBackgroundColor=none;" parent="1" vertex="1">
          <mxGeometry x="1594" y="2601" width="40" height="38" as="geometry" />
        </mxCell>
        <mxCell id="-QjtrjUzRDEMRZ5MF8oH-42" value="7" style="rounded=1;whiteSpace=wrap;html=1;fillColor=#007CBD;strokeColor=none;fontColor=#FFFFFF;fontStyle=1;fontSize=22;labelBackgroundColor=none;" parent="1" vertex="1">
          <mxGeometry x="1593.5" y="2717" width="40" height="38" as="geometry" />
        </mxCell>
        <mxCell id="-QjtrjUzRDEMRZ5MF8oH-43" value="8" style="rounded=1;whiteSpace=wrap;html=1;fillColor=#007CBD;strokeColor=none;fontColor=#FFFFFF;fontStyle=1;fontSize=22;labelBackgroundColor=none;" parent="1" vertex="1">
          <mxGeometry x="1594" y="2835" width="40" height="38" as="geometry" />
        </mxCell>
        <mxCell id="-QjtrjUzRDEMRZ5MF8oH-44" value="9" style="rounded=1;whiteSpace=wrap;html=1;fillColor=#007CBD;strokeColor=none;fontColor=#FFFFFF;fontStyle=1;fontSize=22;labelBackgroundColor=none;" parent="1" vertex="1">
          <mxGeometry x="1592" y="2955" width="40" height="38" as="geometry" />
        </mxCell>
        <mxCell id="-QjtrjUzRDEMRZ5MF8oH-47" value="Title text&lt;br&gt;" style="text;html=1;resizable=0;points=[];autosize=1;align=left;verticalAlign=top;spacingTop=-4;fontSize=30;fontStyle=1;labelBackgroundColor=none;" parent="1" vertex="1">
          <mxGeometry x="66.5" y="1990" width="130" height="40" as="geometry" />
        </mxCell>
        <mxCell id="-QjtrjUzRDEMRZ5MF8oH-48" value="Sub-title text&lt;br style=&quot;font-size: 16px&quot;&gt;" style="text;html=1;resizable=0;points=[];autosize=1;align=left;verticalAlign=top;spacingTop=-4;fontSize=16;labelBackgroundColor=none;" parent="1" vertex="1">
          <mxGeometry x="66.5" y="2040" width="100" height="20" as="geometry" />
        </mxCell>
        <mxCell id="SCVMTBWpLvtzJIhz15lM-1" value="" style="line;strokeWidth=2;html=1;fontSize=14;labelBackgroundColor=none;" parent="1" vertex="1">
          <mxGeometry x="62.5" y="2065" width="1060" height="10" as="geometry" />
        </mxCell>
        <mxCell id="SCVMTBWpLvtzJIhz15lM-6" value="&lt;span&gt;Lorem ipsum dolor sit amet, consectetur adipiscing elit, sed do eiusmod tempor incididunt ut labore et dolore magna aliqua. Ut enim ad minim veniam, quis nostrud exercitation ullamco laboris nisi ut aliquip ex ea commodo consequat. Duis aute irure dolor in reprehenderit in voluptate velit esse cillum dolore eu fugiat nulla pariatur. Excepteur sint occaecat cupidatat non proident, sunt in culpa qui officia deserunt mollit anim id est laborum.&lt;/span&gt;&lt;br&gt;" style="text;html=1;align=left;verticalAlign=top;spacingTop=-4;fontSize=14;labelBackgroundColor=none;whiteSpace=wrap;" parent="1" vertex="1">
          <mxGeometry x="1644.5" y="2012.5" width="449" height="118" as="geometry" />
        </mxCell>
        <mxCell id="SCVMTBWpLvtzJIhz15lM-7" value="&lt;span&gt;Lorem ipsum dolor sit amet, consectetur adipiscing elit, sed do eiusmod tempor incididunt ut labore et dolore magna aliqua. Ut enim ad minim veniam, quis nostrud exercitation ullamco laboris nisi ut aliquip ex ea commodo consequat. Duis aute irure dolor in reprehenderit in voluptate velit esse cillum dolore eu fugiat nulla pariatur. Excepteur sint occaecat cupidatat non proident, sunt in culpa qui officia deserunt mollit anim id est laborum.&lt;/span&gt;&lt;br&gt;" style="text;html=1;align=left;verticalAlign=top;spacingTop=-4;fontSize=14;labelBackgroundColor=none;whiteSpace=wrap;" parent="1" vertex="1">
          <mxGeometry x="1643.5" y="2135.5" width="450" height="115" as="geometry" />
        </mxCell>
        <mxCell id="SCVMTBWpLvtzJIhz15lM-9" value="&lt;span&gt;Lorem ipsum dolor sit amet, consectetur adipiscing elit, sed do eiusmod tempor incididunt ut labore et dolore magna aliqua. Ut enim ad minim veniam, quis nostrud exercitation ullamco laboris nisi ut aliquip ex ea commodo consequat. Duis aute irure dolor in reprehenderit in voluptate velit esse cillum dolore eu fugiat nulla pariatur. Excepteur sint occaecat cupidatat non proident, sunt in culpa qui officia deserunt mollit anim id est laborum.&lt;/span&gt;&lt;br&gt;" style="text;html=1;align=left;verticalAlign=top;spacingTop=-4;fontSize=14;labelBackgroundColor=none;whiteSpace=wrap;" parent="1" vertex="1">
          <mxGeometry x="1643.5" y="2253.5" width="450" height="117" as="geometry" />
        </mxCell>
        <mxCell id="SCVMTBWpLvtzJIhz15lM-10" value="&lt;span&gt;Lorem ipsum dolor sit amet, consectetur adipiscing elit, sed do eiusmod tempor incididunt ut labore et dolore magna aliqua. Ut enim ad minim veniam, quis nostrud exercitation ullamco laboris nisi ut aliquip ex ea commodo consequat. Duis aute irure dolor in reprehenderit in voluptate velit esse cillum dolore eu fugiat nulla pariatur. Excepteur sint occaecat cupidatat non proident, sunt in culpa qui officia deserunt mollit anim id est laborum.&lt;/span&gt;&lt;br&gt;" style="text;html=1;align=left;verticalAlign=top;spacingTop=-4;fontSize=14;labelBackgroundColor=none;whiteSpace=wrap;" parent="1" vertex="1">
          <mxGeometry x="1643.5" y="2369.5" width="450" height="121" as="geometry" />
        </mxCell>
        <mxCell id="SCVMTBWpLvtzJIhz15lM-11" value="&lt;span&gt;Lorem ipsum dolor sit amet, consectetur adipiscing elit, sed do eiusmod tempor incididunt ut labore et dolore magna aliqua. Ut enim ad minim veniam, quis nostrud exercitation ullamco laboris nisi ut aliquip ex ea commodo consequat. Duis aute irure dolor in reprehenderit in voluptate velit esse cillum dolore eu fugiat nulla pariatur. Excepteur sint occaecat cupidatat non proident, sunt in culpa qui officia deserunt mollit anim id est laborum.&lt;/span&gt;&lt;br&gt;" style="text;html=1;align=left;verticalAlign=top;spacingTop=-4;fontSize=14;labelBackgroundColor=none;whiteSpace=wrap;" parent="1" vertex="1">
          <mxGeometry x="1644.5" y="2486.5" width="449" height="114" as="geometry" />
        </mxCell>
        <mxCell id="SCVMTBWpLvtzJIhz15lM-12" value="&lt;span&gt;Lorem ipsum dolor sit amet, consectetur adipiscing elit, sed do eiusmod tempor incididunt ut labore et dolore magna aliqua. Ut enim ad minim veniam, quis nostrud exercitation ullamco laboris nisi ut aliquip ex ea commodo consequat. Duis aute irure dolor in reprehenderit in voluptate velit esse cillum dolore eu fugiat nulla pariatur. Excepteur sint occaecat cupidatat non proident, sunt in culpa qui officia deserunt mollit anim id est laborum.&lt;/span&gt;&lt;br&gt;" style="text;html=1;align=left;verticalAlign=top;spacingTop=-4;fontSize=14;labelBackgroundColor=none;whiteSpace=wrap;" parent="1" vertex="1">
          <mxGeometry x="1644.5" y="2602.5" width="450" height="118" as="geometry" />
        </mxCell>
        <mxCell id="SCVMTBWpLvtzJIhz15lM-13" value="&lt;span&gt;Lorem ipsum dolor sit amet, consectetur adipiscing elit, sed do eiusmod tempor incididunt ut labore et dolore magna aliqua. Ut enim ad minim veniam, quis nostrud exercitation ullamco laboris nisi ut aliquip ex ea commodo consequat. Duis aute irure dolor in reprehenderit in voluptate velit esse cillum dolore eu fugiat nulla pariatur. Excepteur sint occaecat cupidatat non proident, sunt in culpa qui officia deserunt mollit anim id est laborum.&lt;/span&gt;&lt;br&gt;" style="text;html=1;align=left;verticalAlign=top;spacingTop=-4;fontSize=14;labelBackgroundColor=none;whiteSpace=wrap;" parent="1" vertex="1">
          <mxGeometry x="1644.5" y="2717.5" width="449" height="113" as="geometry" />
        </mxCell>
        <mxCell id="SCVMTBWpLvtzJIhz15lM-14" value="&lt;span&gt;Lorem ipsum dolor sit amet, consectetur adipiscing elit, sed do eiusmod tempor incididunt ut labore et dolore magna aliqua. Ut enim ad minim veniam, quis nostrud exercitation ullamco laboris nisi ut aliquip ex ea commodo consequat. Duis aute irure dolor in reprehenderit in voluptate velit esse cillum dolore eu fugiat nulla pariatur. Excepteur sint occaecat cupidatat non proident, sunt in culpa qui officia deserunt mollit anim id est laborum.&lt;/span&gt;&lt;br&gt;" style="text;html=1;align=left;verticalAlign=top;spacingTop=-4;fontSize=14;labelBackgroundColor=none;whiteSpace=wrap;" parent="1" vertex="1">
          <mxGeometry x="1644.5" y="2836.5" width="449" height="124" as="geometry" />
        </mxCell>
        <mxCell id="SCVMTBWpLvtzJIhz15lM-15" value="&lt;span&gt;Lorem ipsum dolor sit amet, consectetur adipiscing elit, sed do eiusmod tempor incididunt ut labore et dolore magna aliqua. Ut enim ad minim veniam, quis nostrud exercitation ullamco laboris nisi ut aliquip ex ea commodo consequat. Duis aute irure dolor in reprehenderit in voluptate velit esse cillum dolore eu fugiat nulla pariatur. Excepteur sint occaecat cupidatat non proident, sunt in culpa qui officia deserunt mollit anim id est laborum.&lt;/span&gt;&lt;br&gt;" style="text;html=1;align=left;verticalAlign=top;spacingTop=-4;fontSize=14;labelBackgroundColor=none;whiteSpace=wrap;" parent="1" vertex="1">
          <mxGeometry x="1644.5" y="2955.5" width="449" height="115" as="geometry" />
        </mxCell>
        <mxCell id="jZVaUwOg5UY3L9NAnvdq-59" value="Actors" style="swimlane;fontSize=14;align=center;swimlaneFillColor=#f4f4f4;fillColor=#f4f4f4;startSize=33;container=1;pointerEvents=0;collapsible=0;recursiveResize=0;" parent="1" vertex="1">
          <mxGeometry x="60" y="2088.5" width="210" height="177" as="geometry" />
        </mxCell>
        <mxCell id="jZVaUwOg5UY3L9NAnvdq-60" value="User" style="outlineConnect=0;fontColor=#232F3E;gradientColor=none;fillColor=#232F3E;strokeColor=none;dashed=0;verticalLabelPosition=bottom;verticalAlign=top;align=center;html=1;fontSize=12;fontStyle=0;aspect=fixed;pointerEvents=1;shape=mxgraph.aws4.user;labelBackgroundColor=none;" parent="jZVaUwOg5UY3L9NAnvdq-59" vertex="1">
          <mxGeometry x="16" y="54" width="78" height="78" as="geometry" />
        </mxCell>
        <mxCell id="jZVaUwOg5UY3L9NAnvdq-61" value="Payers" style="outlineConnect=0;fontColor=#232F3E;gradientColor=none;fillColor=#232F3E;strokeColor=none;dashed=0;verticalLabelPosition=bottom;verticalAlign=top;align=center;html=1;fontSize=12;fontStyle=0;aspect=fixed;pointerEvents=1;shape=mxgraph.aws4.corporate_data_center;labelBackgroundColor=none;" parent="jZVaUwOg5UY3L9NAnvdq-59" vertex="1">
          <mxGeometry x="130" y="54" width="53" height="78" as="geometry" />
        </mxCell>
        <mxCell id="jZVaUwOg5UY3L9NAnvdq-62" value="Channels" style="swimlane;fontSize=14;align=center;swimlaneFillColor=#f4f4f4;fillColor=#f4f4f4;startSize=33;container=1;pointerEvents=0;collapsible=0;recursiveResize=0;" parent="1" vertex="1">
          <mxGeometry x="60" y="2265.5" width="210" height="580" as="geometry" />
        </mxCell>
        <mxCell id="jZVaUwOg5UY3L9NAnvdq-65" value="Mobile / Web" style="outlineConnect=0;fontColor=#232F3E;gradientColor=none;strokeColor=none;fillColor=#277116;dashed=0;verticalLabelPosition=bottom;verticalAlign=top;align=center;html=1;fontSize=12;fontStyle=0;shape=mxgraph.aws4.mobile_client;labelBackgroundColor=none;" parent="jZVaUwOg5UY3L9NAnvdq-62" vertex="1">
          <mxGeometry x="67.5" y="57.5" width="53" height="100" as="geometry" />
        </mxCell>
        <mxCell id="jZVaUwOg5UY3L9NAnvdq-69" value="Wearables" style="outlineConnect=0;fontColor=#232F3E;gradientColor=none;fillColor=#277116;strokeColor=none;dashed=0;verticalLabelPosition=bottom;verticalAlign=top;align=center;html=1;fontSize=12;fontStyle=0;aspect=fixed;pointerEvents=1;shape=mxgraph.aws4.medical_emergency;labelBackgroundColor=none;" parent="jZVaUwOg5UY3L9NAnvdq-62" vertex="1">
          <mxGeometry x="63" y="310" width="78" height="78" as="geometry" />
        </mxCell>
        <mxCell id="jZVaUwOg5UY3L9NAnvdq-70" value="Echo" style="outlineConnect=0;fontColor=#232F3E;gradientColor=none;fillColor=#277116;strokeColor=none;dashed=0;verticalLabelPosition=bottom;verticalAlign=top;align=center;html=1;fontSize=12;fontStyle=0;aspect=fixed;pointerEvents=1;shape=mxgraph.aws4.echo;labelBackgroundColor=none;" parent="jZVaUwOg5UY3L9NAnvdq-62" vertex="1">
          <mxGeometry x="84" y="427" width="41" height="78" as="geometry" />
        </mxCell>
        <mxCell id="jZVaUwOg5UY3L9NAnvdq-95" value="API" style="outlineConnect=0;fontColor=#232F3E;gradientColor=none;fillColor=#277116;strokeColor=none;dashed=0;verticalLabelPosition=bottom;verticalAlign=top;align=center;html=1;fontSize=12;fontStyle=0;aspect=fixed;pointerEvents=1;shape=mxgraph.aws4.external_sdk;labelBackgroundColor=none;" parent="jZVaUwOg5UY3L9NAnvdq-62" vertex="1">
          <mxGeometry x="73" y="208.5" width="68" height="78" as="geometry" />
        </mxCell>
        <mxCell id="jZVaUwOg5UY3L9NAnvdq-101" value="1" style="rounded=1;whiteSpace=wrap;html=1;fillColor=#007CBD;strokeColor=none;fontColor=#FFFFFF;fontStyle=1;fontSize=22;labelBackgroundColor=none;" parent="jZVaUwOg5UY3L9NAnvdq-62" vertex="1">
          <mxGeometry x="143" y="61" width="40" height="38" as="geometry" />
        </mxCell>
        <mxCell id="-QjtrjUzRDEMRZ5MF8oH-28" value="4" style="rounded=1;whiteSpace=wrap;html=1;fillColor=#007CBD;strokeColor=none;fontColor=#FFFFFF;fontStyle=1;fontSize=22;labelBackgroundColor=none;" parent="1" vertex="1">
          <mxGeometry x="589" y="2315.5" width="40" height="38" as="geometry" />
        </mxCell>
        <mxCell id="jZVaUwOg5UY3L9NAnvdq-72" value="Amazon Lex" style="outlineConnect=0;fontColor=#232F3E;gradientColor=#4AB29A;gradientDirection=north;fillColor=#116D5B;strokeColor=#ffffff;dashed=0;verticalLabelPosition=bottom;verticalAlign=top;align=center;html=1;fontSize=12;fontStyle=0;aspect=fixed;shape=mxgraph.aws4.resourceIcon;resIcon=mxgraph.aws4.lex;labelBackgroundColor=#ffffff;spacingTop=8;" parent="1" vertex="1">
          <mxGeometry x="330" y="2165.5" width="78" height="78" as="geometry" />
        </mxCell>
        <mxCell id="jZVaUwOg5UY3L9NAnvdq-73" value="Amazon S3" style="outlineConnect=0;fontColor=#232F3E;gradientColor=#60A337;gradientDirection=north;fillColor=#277116;strokeColor=#ffffff;dashed=0;verticalLabelPosition=bottom;verticalAlign=top;align=center;html=1;fontSize=12;fontStyle=0;aspect=fixed;shape=mxgraph.aws4.resourceIcon;resIcon=mxgraph.aws4.s3;labelBackgroundColor=none;" parent="1" vertex="1">
          <mxGeometry x="506" y="2142.5" width="78" height="78" as="geometry" />
        </mxCell>
        <mxCell id="jZVaUwOg5UY3L9NAnvdq-74" value="Amazon API&lt;br&gt;Gateway&lt;br&gt;" style="outlineConnect=0;fontColor=#232F3E;gradientColor=#945DF2;gradientDirection=north;fillColor=#5A30B5;strokeColor=#ffffff;dashed=0;verticalLabelPosition=bottom;verticalAlign=top;align=center;html=1;fontSize=12;fontStyle=0;aspect=fixed;shape=mxgraph.aws4.resourceIcon;resIcon=mxgraph.aws4.api_gateway;labelBackgroundColor=none;" parent="1" vertex="1">
          <mxGeometry x="502" y="2342.5" width="78" height="78" as="geometry" />
        </mxCell>
        <mxCell id="jZVaUwOg5UY3L9NAnvdq-75" value="Amazon Kinesis&lt;br&gt;Data Streams&lt;br&gt;" style="outlineConnect=0;fontColor=#232F3E;gradientColor=#945DF2;gradientDirection=north;fillColor=#5A30B5;strokeColor=#ffffff;dashed=0;verticalLabelPosition=bottom;verticalAlign=top;align=center;html=1;fontSize=12;fontStyle=0;aspect=fixed;shape=mxgraph.aws4.resourceIcon;resIcon=mxgraph.aws4.kinesis_data_streams;labelBackgroundColor=#ffffff;spacingTop=5;" parent="1" vertex="1">
          <mxGeometry x="639" y="2342.5" width="78" height="78" as="geometry" />
        </mxCell>
        <mxCell id="jZVaUwOg5UY3L9NAnvdq-76" value="Amazon&lt;br&gt;ElasticSearch&lt;br&gt;" style="outlineConnect=0;fontColor=#232F3E;gradientColor=#945DF2;gradientDirection=north;fillColor=#5A30B5;strokeColor=#ffffff;dashed=0;verticalLabelPosition=bottom;verticalAlign=top;align=center;html=1;fontSize=12;fontStyle=0;aspect=fixed;shape=mxgraph.aws4.resourceIcon;resIcon=mxgraph.aws4.elasticsearch_service;labelBackgroundColor=none;" parent="1" vertex="1">
          <mxGeometry x="774" y="2196" width="78" height="78" as="geometry" />
        </mxCell>
        <mxCell id="jZVaUwOg5UY3L9NAnvdq-77" value="DynamoDB&lt;br&gt;Streams&lt;br&gt;" style="outlineConnect=0;fontColor=#232F3E;gradientColor=#4D72F3;gradientDirection=north;fillColor=#3334B9;strokeColor=#ffffff;dashed=0;verticalLabelPosition=bottom;verticalAlign=top;align=center;html=1;fontSize=12;fontStyle=0;aspect=fixed;shape=mxgraph.aws4.resourceIcon;resIcon=mxgraph.aws4.dynamodb;labelBackgroundColor=#ffffff;spacingTop=6;" parent="1" vertex="1">
          <mxGeometry x="953.0000000000002" y="2196" width="78" height="78" as="geometry" />
        </mxCell>
        <mxCell id="jZVaUwOg5UY3L9NAnvdq-78" value="Subscriber&lt;br&gt;Processor&lt;br&gt;" style="outlineConnect=0;fontColor=#232F3E;gradientColor=none;fillColor=#D05C17;strokeColor=none;dashed=0;verticalLabelPosition=bottom;verticalAlign=top;align=center;html=1;fontSize=12;fontStyle=0;aspect=fixed;pointerEvents=1;shape=mxgraph.aws4.lambda_function;labelBackgroundColor=none;" parent="1" vertex="1">
          <mxGeometry x="1070" y="2196" width="78" height="78" as="geometry" />
        </mxCell>
        <mxCell id="jZVaUwOg5UY3L9NAnvdq-80" value="Request&lt;br&gt;Processor&lt;br&gt;" style="outlineConnect=0;fontColor=#232F3E;gradientColor=none;fillColor=#D05C17;strokeColor=none;dashed=0;verticalLabelPosition=bottom;verticalAlign=top;align=center;html=1;fontSize=12;fontStyle=0;aspect=fixed;pointerEvents=1;shape=mxgraph.aws4.lambda_function;labelBackgroundColor=#ffffff;spacingTop=7;" parent="1" vertex="1">
          <mxGeometry x="774" y="2342.5" width="78" height="78" as="geometry" />
        </mxCell>
        <mxCell id="jZVaUwOg5UY3L9NAnvdq-81" value="Amazon&lt;br&gt;DynamoDB&lt;br&gt;" style="outlineConnect=0;fontColor=#232F3E;gradientColor=#4D72F3;gradientDirection=north;fillColor=#3334B9;strokeColor=#ffffff;dashed=0;verticalLabelPosition=bottom;verticalAlign=top;align=center;html=1;fontSize=12;fontStyle=0;aspect=fixed;shape=mxgraph.aws4.resourceIcon;resIcon=mxgraph.aws4.dynamodb;labelBackgroundColor=#ffffff;" parent="1" vertex="1">
          <mxGeometry x="953.0000000000003" y="2342.5" width="78" height="78" as="geometry" />
        </mxCell>
        <mxCell id="jZVaUwOg5UY3L9NAnvdq-82" value="ERL Function" style="outlineConnect=0;fontColor=#232F3E;gradientColor=none;fillColor=#D05C17;strokeColor=none;dashed=0;verticalLabelPosition=bottom;verticalAlign=top;align=center;html=1;fontSize=12;fontStyle=0;aspect=fixed;pointerEvents=1;shape=mxgraph.aws4.lambda_function;labelBackgroundColor=#ffffff;spacingTop=2;" parent="1" vertex="1">
          <mxGeometry x="1070" y="2342.5" width="78" height="78" as="geometry" />
        </mxCell>
        <mxCell id="jZVaUwOg5UY3L9NAnvdq-83" value="Amazon Cognito" style="outlineConnect=0;fontColor=#232F3E;gradientColor=#F54749;gradientDirection=north;fillColor=#C7131F;strokeColor=#ffffff;dashed=0;verticalLabelPosition=bottom;verticalAlign=top;align=center;html=1;fontSize=12;fontStyle=0;aspect=fixed;shape=mxgraph.aws4.resourceIcon;resIcon=mxgraph.aws4.cognito;labelBackgroundColor=none;" parent="1" vertex="1">
          <mxGeometry x="330" y="2519.5" width="78" height="78" as="geometry" />
        </mxCell>
        <mxCell id="jZVaUwOg5UY3L9NAnvdq-84" value="Amazon Polly" style="outlineConnect=0;fontColor=#232F3E;gradientColor=#4AB29A;gradientDirection=north;fillColor=#116D5B;strokeColor=#ffffff;dashed=0;verticalLabelPosition=bottom;verticalAlign=top;align=center;html=1;fontSize=12;fontStyle=0;aspect=fixed;shape=mxgraph.aws4.resourceIcon;resIcon=mxgraph.aws4.polly;labelBackgroundColor=none;" parent="1" vertex="1">
          <mxGeometry x="330" y="2681" width="78" height="78" as="geometry" />
        </mxCell>
        <mxCell id="jZVaUwOg5UY3L9NAnvdq-85" value="AWS IoT Core" style="outlineConnect=0;fontColor=#232F3E;gradientColor=#60A337;gradientDirection=north;fillColor=#277116;strokeColor=#ffffff;dashed=0;verticalLabelPosition=bottom;verticalAlign=top;align=center;html=1;fontSize=12;fontStyle=0;aspect=fixed;shape=mxgraph.aws4.resourceIcon;resIcon=mxgraph.aws4.iot_core;labelBackgroundColor=none;" parent="1" vertex="1">
          <mxGeometry x="502" y="2524" width="78" height="78" as="geometry" />
        </mxCell>
        <mxCell id="jZVaUwOg5UY3L9NAnvdq-86" value="Amazon Pinpoint" style="outlineConnect=0;fontColor=#232F3E;gradientColor=#F54749;gradientDirection=north;fillColor=#C7131F;strokeColor=#ffffff;dashed=0;verticalLabelPosition=bottom;verticalAlign=top;align=center;html=1;fontSize=12;fontStyle=0;aspect=fixed;shape=mxgraph.aws4.resourceIcon;resIcon=mxgraph.aws4.pinpoint;labelBackgroundColor=none;" parent="1" vertex="1">
          <mxGeometry x="502" y="2681" width="78" height="78" as="geometry" />
        </mxCell>
        <mxCell id="jZVaUwOg5UY3L9NAnvdq-87" value="IoT Rule" style="outlineConnect=0;fontColor=#232F3E;gradientColor=none;fillColor=#277116;strokeColor=none;dashed=0;verticalLabelPosition=bottom;verticalAlign=top;align=center;html=1;fontSize=12;fontStyle=0;aspect=fixed;pointerEvents=1;shape=mxgraph.aws4.rule;labelBackgroundColor=none;" parent="1" vertex="1">
          <mxGeometry x="655" y="2524" width="46" height="78" as="geometry" />
        </mxCell>
        <mxCell id="jZVaUwOg5UY3L9NAnvdq-88" value="Users&lt;br&gt;" style="outlineConnect=0;fontColor=#232F3E;gradientColor=none;fillColor=#232F3E;strokeColor=none;dashed=0;verticalLabelPosition=bottom;verticalAlign=top;align=center;html=1;fontSize=12;fontStyle=0;aspect=fixed;pointerEvents=1;shape=mxgraph.aws4.users;labelBackgroundColor=none;" parent="1" vertex="1">
          <mxGeometry x="717" y="2681" width="78" height="78" as="geometry" />
        </mxCell>
        <mxCell id="lT2CSq7eGdLM_32b_8D1-4" value="" style="edgeStyle=orthogonalEdgeStyle;rounded=0;orthogonalLoop=1;jettySize=auto;html=1;" parent="1" source="jZVaUwOg5UY3L9NAnvdq-89" target="jZVaUwOg5UY3L9NAnvdq-90" edge="1">
          <mxGeometry relative="1" as="geometry" />
        </mxCell>
        <mxCell id="jZVaUwOg5UY3L9NAnvdq-89" value="Amazon&lt;br&gt;Comprehend&lt;br&gt;Medical&lt;br&gt;" style="outlineConnect=0;fontColor=#232F3E;gradientColor=#4AB29A;gradientDirection=north;fillColor=#116D5B;strokeColor=#ffffff;dashed=0;verticalLabelPosition=bottom;verticalAlign=top;align=center;html=1;fontSize=12;fontStyle=0;aspect=fixed;shape=mxgraph.aws4.resourceIcon;resIcon=mxgraph.aws4.comprehend;labelBackgroundColor=none;" parent="1" vertex="1">
          <mxGeometry x="953.0000000000001" y="2519.5" width="78" height="78" as="geometry" />
        </mxCell>
        <mxCell id="jZVaUwOg5UY3L9NAnvdq-90" value="Amazon Personalize" style="outlineConnect=0;fontColor=#232F3E;gradientColor=#4AB29A;gradientDirection=north;fillColor=#116D5B;strokeColor=#ffffff;dashed=0;verticalLabelPosition=bottom;verticalAlign=top;align=center;html=1;fontSize=12;fontStyle=0;aspect=fixed;shape=mxgraph.aws4.resourceIcon;resIcon=mxgraph.aws4.personalize;labelBackgroundColor=none;" parent="1" vertex="1">
          <mxGeometry x="953.0000000000001" y="2681" width="78" height="78" as="geometry" />
        </mxCell>
        <mxCell id="jZVaUwOg5UY3L9NAnvdq-91" value="Amazon&lt;br&gt;Pinpoint&lt;br&gt;" style="outlineConnect=0;fontColor=#232F3E;gradientColor=#F54749;gradientDirection=north;fillColor=#C7131F;strokeColor=#ffffff;dashed=0;verticalLabelPosition=bottom;verticalAlign=top;align=center;html=1;fontSize=12;fontStyle=0;aspect=fixed;shape=mxgraph.aws4.resourceIcon;resIcon=mxgraph.aws4.pinpoint;labelBackgroundColor=none;" parent="1" vertex="1">
          <mxGeometry x="1240.5" y="2111" width="78" height="78" as="geometry" />
        </mxCell>
        <mxCell id="jZVaUwOg5UY3L9NAnvdq-92" value="User" style="outlineConnect=0;fontColor=#232F3E;gradientColor=none;fillColor=#232F3E;strokeColor=none;dashed=0;verticalLabelPosition=bottom;verticalAlign=top;align=center;html=1;fontSize=12;fontStyle=0;aspect=fixed;pointerEvents=1;shape=mxgraph.aws4.user;labelBackgroundColor=none;" parent="1" vertex="1">
          <mxGeometry x="1461.5000000000002" y="2111" width="78" height="78" as="geometry" />
        </mxCell>
        <mxCell id="jZVaUwOg5UY3L9NAnvdq-93" value="API" style="outlineConnect=0;fontColor=#232F3E;gradientColor=none;fillColor=#232F3E;strokeColor=none;dashed=0;verticalLabelPosition=bottom;verticalAlign=top;align=center;html=1;fontSize=12;fontStyle=0;aspect=fixed;pointerEvents=1;shape=mxgraph.aws4.external_sdk;labelBackgroundColor=none;" parent="1" vertex="1">
          <mxGeometry x="1466.5000000000002" y="2219.5" width="68" height="78" as="geometry" />
        </mxCell>
        <mxCell id="jZVaUwOg5UY3L9NAnvdq-94" value="API&lt;br&gt;" style="outlineConnect=0;fontColor=#232F3E;gradientColor=none;fillColor=#232F3E;strokeColor=none;dashed=0;verticalLabelPosition=bottom;verticalAlign=top;align=center;html=1;fontSize=12;fontStyle=0;aspect=fixed;pointerEvents=1;shape=mxgraph.aws4.external_sdk;labelBackgroundColor=none;" parent="1" vertex="1">
          <mxGeometry x="1466.5000000000002" y="2323" width="68" height="78" as="geometry" />
        </mxCell>
        <mxCell id="jZVaUwOg5UY3L9NAnvdq-97" value="AWS Lake&lt;br&gt;Formation&lt;br&gt;" style="outlineConnect=0;fontColor=#232F3E;gradientColor=#945DF2;gradientDirection=north;fillColor=#5A30B5;strokeColor=#ffffff;dashed=0;verticalLabelPosition=bottom;verticalAlign=top;align=center;html=1;fontSize=12;fontStyle=0;aspect=fixed;shape=mxgraph.aws4.resourceIcon;resIcon=mxgraph.aws4.lake_formation;labelBackgroundColor=#ffffff;" parent="1" vertex="1">
          <mxGeometry x="1240" y="2519.5" width="78" height="78" as="geometry" />
        </mxCell>
        <mxCell id="jZVaUwOg5UY3L9NAnvdq-98" value="Execute Model" style="outlineConnect=0;fontColor=#232F3E;gradientColor=none;fillColor=#D05C17;strokeColor=none;dashed=0;verticalLabelPosition=bottom;verticalAlign=top;align=center;html=1;fontSize=12;fontStyle=0;aspect=fixed;pointerEvents=1;shape=mxgraph.aws4.lambda_function;labelBackgroundColor=none;" parent="1" vertex="1">
          <mxGeometry x="1240" y="2681" width="78" height="78" as="geometry" />
        </mxCell>
        <mxCell id="jZVaUwOg5UY3L9NAnvdq-99" value="Related &quot;Casual&quot;&lt;br&gt;Data&lt;br&gt;" style="outlineConnect=0;fontColor=#232F3E;gradientColor=none;fillColor=#BE0917;strokeColor=none;dashed=0;verticalLabelPosition=bottom;verticalAlign=top;align=center;html=1;fontSize=12;fontStyle=0;aspect=fixed;pointerEvents=1;shape=mxgraph.aws4.fleet_management;labelBackgroundColor=none;" parent="1" vertex="1">
          <mxGeometry x="1461" y="2519.5" width="78" height="78" as="geometry" />
        </mxCell>
        <mxCell id="jZVaUwOg5UY3L9NAnvdq-100" value="Research&lt;br&gt;" style="outlineConnect=0;fontColor=#232F3E;gradientColor=none;fillColor=#116D5B;strokeColor=none;dashed=0;verticalLabelPosition=bottom;verticalAlign=top;align=center;html=1;fontSize=12;fontStyle=0;aspect=fixed;pointerEvents=1;shape=mxgraph.aws4.sagemaker_notebook;labelBackgroundColor=none;" parent="1" vertex="1">
          <mxGeometry x="1466" y="2701.5" width="68" height="78" as="geometry" />
        </mxCell>
        <mxCell id="jZVaUwOg5UY3L9NAnvdq-102" value="2" style="rounded=1;whiteSpace=wrap;html=1;fillColor=#007CBD;strokeColor=none;fontColor=#FFFFFF;fontStyle=1;fontSize=22;labelBackgroundColor=none;" parent="1" vertex="1">
          <mxGeometry x="349" y="2471" width="40" height="38" as="geometry" />
        </mxCell>
        <mxCell id="jZVaUwOg5UY3L9NAnvdq-103" value="3" style="rounded=1;whiteSpace=wrap;html=1;fillColor=#007CBD;strokeColor=none;fontColor=#FFFFFF;fontStyle=1;fontSize=22;labelBackgroundColor=none;" parent="1" vertex="1">
          <mxGeometry x="521" y="2638" width="40" height="38" as="geometry" />
        </mxCell>
        <mxCell id="jZVaUwOg5UY3L9NAnvdq-104" value="5" style="rounded=1;whiteSpace=wrap;html=1;fillColor=#007CBD;strokeColor=none;fontColor=#FFFFFF;fontStyle=1;fontSize=22;labelBackgroundColor=none;" parent="1" vertex="1">
          <mxGeometry x="910" y="2181.5" width="40" height="38" as="geometry" />
        </mxCell>
        <mxCell id="jZVaUwOg5UY3L9NAnvdq-105" value="6" style="rounded=1;whiteSpace=wrap;html=1;fillColor=#007CBD;strokeColor=none;fontColor=#FFFFFF;fontStyle=1;fontSize=22;labelBackgroundColor=none;" parent="1" vertex="1">
          <mxGeometry x="910" y="2326.5" width="40" height="38" as="geometry" />
        </mxCell>
        <mxCell id="jZVaUwOg5UY3L9NAnvdq-106" value="7" style="rounded=1;whiteSpace=wrap;html=1;fillColor=#007CBD;strokeColor=none;fontColor=#FFFFFF;fontStyle=1;fontSize=22;labelBackgroundColor=none;" parent="1" vertex="1">
          <mxGeometry x="910" y="2502.5" width="40" height="38" as="geometry" />
        </mxCell>
        <mxCell id="jZVaUwOg5UY3L9NAnvdq-107" value="8" style="rounded=1;whiteSpace=wrap;html=1;fillColor=#007CBD;strokeColor=none;fontColor=#FFFFFF;fontStyle=1;fontSize=22;labelBackgroundColor=none;" parent="1" vertex="1">
          <mxGeometry x="910" y="2658.5" width="40" height="38" as="geometry" />
        </mxCell>
        <mxCell id="jZVaUwOg5UY3L9NAnvdq-108" value="9" style="rounded=1;whiteSpace=wrap;html=1;fillColor=#007CBD;strokeColor=none;fontColor=#FFFFFF;fontStyle=1;fontSize=22;labelBackgroundColor=none;" parent="1" vertex="1">
          <mxGeometry x="1160" y="2488.5" width="40" height="38" as="geometry" />
        </mxCell>
        <mxCell id="jZVaUwOg5UY3L9NAnvdq-96" value="Amazon&lt;br&gt;SageMaker&lt;br&gt;" style="outlineConnect=0;fontColor=#232F3E;gradientColor=#4AB29A;gradientDirection=north;fillColor=#116D5B;strokeColor=#ffffff;dashed=0;verticalLabelPosition=bottom;verticalAlign=top;align=center;html=1;fontSize=12;fontStyle=0;aspect=fixed;shape=mxgraph.aws4.resourceIcon;resIcon=mxgraph.aws4.sagemaker;labelBackgroundColor=#ffffff;spacingTop=7;" parent="1" vertex="1">
          <mxGeometry x="1240" y="2380" width="78" height="78" as="geometry" />
        </mxCell>
        <mxCell id="jZVaUwOg5UY3L9NAnvdq-163" value="" style="group" parent="1" vertex="1" connectable="0">
          <mxGeometry x="282.50000000000006" y="2707" width="21" height="26" as="geometry" />
        </mxCell>
        <mxCell id="jZVaUwOg5UY3L9NAnvdq-162" value="" style="rounded=0;whiteSpace=wrap;html=1;labelBackgroundColor=#ffffff;fontSize=14;align=center;strokeColor=none;" parent="jZVaUwOg5UY3L9NAnvdq-163" vertex="1">
          <mxGeometry width="21" height="26" as="geometry" />
        </mxCell>
        <mxCell id="jZVaUwOg5UY3L9NAnvdq-161" value="" style="outlineConnect=0;fontColor=#232F3E;gradientColor=none;fillColor=#B3B3B3;strokeColor=none;dashed=0;verticalLabelPosition=bottom;verticalAlign=top;align=center;html=1;fontSize=12;fontStyle=0;aspect=fixed;pointerEvents=1;shape=mxgraph.aws4.encrypted_data;labelBackgroundColor=#ffffff;" parent="jZVaUwOg5UY3L9NAnvdq-163" vertex="1">
          <mxGeometry width="21" height="26" as="geometry" />
        </mxCell>
        <mxCell id="jZVaUwOg5UY3L9NAnvdq-164" value="" style="group" parent="1" vertex="1" connectable="0">
          <mxGeometry x="283.00000000000006" y="2631" width="21" height="26" as="geometry" />
        </mxCell>
        <mxCell id="jZVaUwOg5UY3L9NAnvdq-165" value="" style="rounded=0;whiteSpace=wrap;html=1;labelBackgroundColor=#ffffff;fontSize=14;align=center;strokeColor=none;" parent="jZVaUwOg5UY3L9NAnvdq-164" vertex="1">
          <mxGeometry width="21" height="26" as="geometry" />
        </mxCell>
        <mxCell id="jZVaUwOg5UY3L9NAnvdq-166" value="" style="outlineConnect=0;fontColor=#232F3E;gradientColor=none;fillColor=#B3B3B3;strokeColor=none;dashed=0;verticalLabelPosition=bottom;verticalAlign=top;align=center;html=1;fontSize=12;fontStyle=0;aspect=fixed;pointerEvents=1;shape=mxgraph.aws4.encrypted_data;labelBackgroundColor=#ffffff;" parent="jZVaUwOg5UY3L9NAnvdq-164" vertex="1">
          <mxGeometry width="21" height="26" as="geometry" />
        </mxCell>
        <mxCell id="jZVaUwOg5UY3L9NAnvdq-167" value="" style="group" parent="1" vertex="1" connectable="0">
          <mxGeometry x="283.00000000000006" y="2542.5" width="21" height="26" as="geometry" />
        </mxCell>
        <mxCell id="jZVaUwOg5UY3L9NAnvdq-168" value="" style="rounded=0;whiteSpace=wrap;html=1;labelBackgroundColor=#ffffff;fontSize=14;align=center;strokeColor=none;" parent="jZVaUwOg5UY3L9NAnvdq-167" vertex="1">
          <mxGeometry width="21" height="26" as="geometry" />
        </mxCell>
        <mxCell id="jZVaUwOg5UY3L9NAnvdq-169" value="" style="outlineConnect=0;fontColor=#232F3E;gradientColor=none;fillColor=#B3B3B3;strokeColor=none;dashed=0;verticalLabelPosition=bottom;verticalAlign=top;align=center;html=1;fontSize=12;fontStyle=0;aspect=fixed;pointerEvents=1;shape=mxgraph.aws4.encrypted_data;labelBackgroundColor=#ffffff;" parent="jZVaUwOg5UY3L9NAnvdq-167" vertex="1">
          <mxGeometry width="21" height="26" as="geometry" />
        </mxCell>
        <mxCell id="jZVaUwOg5UY3L9NAnvdq-170" value="" style="group" parent="1" vertex="1" connectable="0">
          <mxGeometry x="283.00000000000006" y="2403" width="21" height="26" as="geometry" />
        </mxCell>
        <mxCell id="jZVaUwOg5UY3L9NAnvdq-171" value="" style="rounded=0;whiteSpace=wrap;html=1;labelBackgroundColor=#ffffff;fontSize=14;align=center;strokeColor=none;" parent="jZVaUwOg5UY3L9NAnvdq-170" vertex="1">
          <mxGeometry width="21" height="26" as="geometry" />
        </mxCell>
        <mxCell id="jZVaUwOg5UY3L9NAnvdq-172" value="" style="outlineConnect=0;fontColor=#232F3E;gradientColor=none;fillColor=#B3B3B3;strokeColor=none;dashed=0;verticalLabelPosition=bottom;verticalAlign=top;align=center;html=1;fontSize=12;fontStyle=0;aspect=fixed;pointerEvents=1;shape=mxgraph.aws4.encrypted_data;labelBackgroundColor=#ffffff;" parent="jZVaUwOg5UY3L9NAnvdq-170" vertex="1">
          <mxGeometry width="21" height="26" as="geometry" />
        </mxCell>
        <mxCell id="jZVaUwOg5UY3L9NAnvdq-173" value="" style="group" parent="1" vertex="1" connectable="0">
          <mxGeometry x="282.50000000000006" y="2368" width="21" height="26" as="geometry" />
        </mxCell>
        <mxCell id="jZVaUwOg5UY3L9NAnvdq-174" value="" style="rounded=0;whiteSpace=wrap;html=1;labelBackgroundColor=#ffffff;fontSize=14;align=center;strokeColor=none;" parent="jZVaUwOg5UY3L9NAnvdq-173" vertex="1">
          <mxGeometry width="21" height="26" as="geometry" />
        </mxCell>
        <mxCell id="jZVaUwOg5UY3L9NAnvdq-175" value="" style="outlineConnect=0;fontColor=#232F3E;gradientColor=none;fillColor=#B3B3B3;strokeColor=none;dashed=0;verticalLabelPosition=bottom;verticalAlign=top;align=center;html=1;fontSize=12;fontStyle=0;aspect=fixed;pointerEvents=1;shape=mxgraph.aws4.encrypted_data;labelBackgroundColor=#ffffff;" parent="jZVaUwOg5UY3L9NAnvdq-173" vertex="1">
          <mxGeometry width="21" height="26" as="geometry" />
        </mxCell>
        <mxCell id="jZVaUwOg5UY3L9NAnvdq-176" value="" style="group" parent="1" vertex="1" connectable="0">
          <mxGeometry x="283.00000000000006" y="2332.5" width="21" height="26" as="geometry" />
        </mxCell>
        <mxCell id="jZVaUwOg5UY3L9NAnvdq-177" value="" style="rounded=0;whiteSpace=wrap;html=1;labelBackgroundColor=#ffffff;fontSize=14;align=center;strokeColor=none;" parent="jZVaUwOg5UY3L9NAnvdq-176" vertex="1">
          <mxGeometry width="21" height="26" as="geometry" />
        </mxCell>
        <mxCell id="jZVaUwOg5UY3L9NAnvdq-178" value="" style="outlineConnect=0;fontColor=#232F3E;gradientColor=none;fillColor=#B3B3B3;strokeColor=none;dashed=0;verticalLabelPosition=bottom;verticalAlign=top;align=center;html=1;fontSize=12;fontStyle=0;aspect=fixed;pointerEvents=1;shape=mxgraph.aws4.encrypted_data;labelBackgroundColor=#ffffff;" parent="jZVaUwOg5UY3L9NAnvdq-176" vertex="1">
          <mxGeometry width="21" height="26" as="geometry" />
        </mxCell>
        <mxCell id="jZVaUwOg5UY3L9NAnvdq-179" value="" style="group" parent="1" vertex="1" connectable="0">
          <mxGeometry x="1380" y="2348" width="21" height="26" as="geometry" />
        </mxCell>
        <mxCell id="jZVaUwOg5UY3L9NAnvdq-180" value="" style="rounded=0;whiteSpace=wrap;html=1;labelBackgroundColor=#ffffff;fontSize=14;align=center;strokeColor=none;" parent="jZVaUwOg5UY3L9NAnvdq-179" vertex="1">
          <mxGeometry width="21" height="26" as="geometry" />
        </mxCell>
        <mxCell id="jZVaUwOg5UY3L9NAnvdq-181" value="" style="outlineConnect=0;fontColor=#232F3E;gradientColor=none;fillColor=#B3B3B3;strokeColor=none;dashed=0;verticalLabelPosition=bottom;verticalAlign=top;align=center;html=1;fontSize=12;fontStyle=0;aspect=fixed;pointerEvents=1;shape=mxgraph.aws4.encrypted_data;labelBackgroundColor=#ffffff;" parent="jZVaUwOg5UY3L9NAnvdq-179" vertex="1">
          <mxGeometry width="21" height="26" as="geometry" />
        </mxCell>
        <mxCell id="jZVaUwOg5UY3L9NAnvdq-182" value="" style="group" parent="1" vertex="1" connectable="0">
          <mxGeometry x="1380" y="2245.5" width="21" height="26" as="geometry" />
        </mxCell>
        <mxCell id="jZVaUwOg5UY3L9NAnvdq-183" value="" style="rounded=0;whiteSpace=wrap;html=1;labelBackgroundColor=#ffffff;fontSize=14;align=center;strokeColor=none;" parent="jZVaUwOg5UY3L9NAnvdq-182" vertex="1">
          <mxGeometry width="21" height="26" as="geometry" />
        </mxCell>
        <mxCell id="jZVaUwOg5UY3L9NAnvdq-184" value="" style="outlineConnect=0;fontColor=#232F3E;gradientColor=none;fillColor=#B3B3B3;strokeColor=none;dashed=0;verticalLabelPosition=bottom;verticalAlign=top;align=center;html=1;fontSize=12;fontStyle=0;aspect=fixed;pointerEvents=1;shape=mxgraph.aws4.encrypted_data;labelBackgroundColor=#ffffff;" parent="jZVaUwOg5UY3L9NAnvdq-182" vertex="1">
          <mxGeometry width="21" height="26" as="geometry" />
        </mxCell>
        <mxCell id="jZVaUwOg5UY3L9NAnvdq-185" value="" style="group" parent="1" vertex="1" connectable="0">
          <mxGeometry x="1380" y="2545" width="21" height="26" as="geometry" />
        </mxCell>
        <mxCell id="jZVaUwOg5UY3L9NAnvdq-186" value="" style="rounded=0;whiteSpace=wrap;html=1;labelBackgroundColor=#ffffff;fontSize=14;align=center;strokeColor=none;" parent="jZVaUwOg5UY3L9NAnvdq-185" vertex="1">
          <mxGeometry width="21" height="26" as="geometry" />
        </mxCell>
        <mxCell id="jZVaUwOg5UY3L9NAnvdq-187" value="" style="outlineConnect=0;fontColor=#232F3E;gradientColor=none;fillColor=#B3B3B3;strokeColor=none;dashed=0;verticalLabelPosition=bottom;verticalAlign=top;align=center;html=1;fontSize=12;fontStyle=0;aspect=fixed;pointerEvents=1;shape=mxgraph.aws4.encrypted_data;labelBackgroundColor=#ffffff;" parent="jZVaUwOg5UY3L9NAnvdq-185" vertex="1">
          <mxGeometry width="21" height="26" as="geometry" />
        </mxCell>
        <mxCell id="jZVaUwOg5UY3L9NAnvdq-188" value="" style="group" parent="1" vertex="1" connectable="0">
          <mxGeometry x="1380" y="2635.5" width="21" height="26" as="geometry" />
        </mxCell>
        <mxCell id="jZVaUwOg5UY3L9NAnvdq-189" value="" style="rounded=0;whiteSpace=wrap;html=1;labelBackgroundColor=#ffffff;fontSize=14;align=center;strokeColor=none;" parent="jZVaUwOg5UY3L9NAnvdq-188" vertex="1">
          <mxGeometry width="21" height="26" as="geometry" />
        </mxCell>
        <mxCell id="jZVaUwOg5UY3L9NAnvdq-190" value="" style="outlineConnect=0;fontColor=#232F3E;gradientColor=none;fillColor=#B3B3B3;strokeColor=none;dashed=0;verticalLabelPosition=bottom;verticalAlign=top;align=center;html=1;fontSize=12;fontStyle=0;aspect=fixed;pointerEvents=1;shape=mxgraph.aws4.encrypted_data;labelBackgroundColor=#ffffff;" parent="jZVaUwOg5UY3L9NAnvdq-188" vertex="1">
          <mxGeometry width="21" height="26" as="geometry" />
        </mxCell>
        <mxCell id="lT2CSq7eGdLM_32b_8D1-1" value="" style="sketch=0;pointerEvents=1;shadow=0;dashed=0;html=1;strokeColor=none;fillColor=#505050;labelPosition=center;verticalLabelPosition=bottom;verticalAlign=top;outlineConnect=0;align=center;shape=mxgraph.office.devices.laptop;" parent="1" vertex="1">
          <mxGeometry x="370" y="1993.5" width="58" height="34" as="geometry" />
        </mxCell>
        <mxCell id="lT2CSq7eGdLM_32b_8D1-2" value="" style="pointerEvents=1;shadow=0;dashed=0;html=1;strokeColor=none;fillColor=#4495D1;labelPosition=center;verticalLabelPosition=bottom;verticalAlign=top;align=center;outlineConnect=0;shape=mxgraph.veeam.laptop;" parent="1" vertex="1">
          <mxGeometry x="580" y="1990.5" width="58.4" height="44" as="geometry" />
        </mxCell>
        <mxCell id="lT2CSq7eGdLM_32b_8D1-7" value="&lt;font color=&quot;#000000&quot;&gt;desktop&lt;/font&gt;" style="fontColor=#0066CC;verticalAlign=top;verticalLabelPosition=bottom;labelPosition=center;align=center;html=1;outlineConnect=0;fillColor=#CCCCCC;strokeColor=#6881B3;gradientColor=none;gradientDirection=north;strokeWidth=2;shape=mxgraph.networks.pc;" parent="1" vertex="1">
          <mxGeometry x="151.51999999999998" y="1360" width="64" height="60" as="geometry" />
        </mxCell>
        <mxCell id="lT2CSq7eGdLM_32b_8D1-24" value="laptop&lt;br&gt;" style="points=[];aspect=fixed;html=1;align=center;shadow=0;dashed=0;image;image=img/lib/allied_telesis/computer_and_terminals/Laptop.svg;fontColor=#000000;" parent="1" vertex="1">
          <mxGeometry x="149.01" y="1560" width="69.01" height="70" as="geometry" />
        </mxCell>
        <mxCell id="lT2CSq7eGdLM_32b_8D1-27" value="data center" style="shape=image;html=1;verticalAlign=top;verticalLabelPosition=bottom;labelBackgroundColor=#ffffff;imageAspect=0;aspect=fixed;image=https://cdn2.iconfinder.com/data/icons/whcompare-isometric-web-hosting-servers/50/server-racks-128.png;fontColor=#000000;" parent="1" vertex="1">
          <mxGeometry x="146.07" y="1450" width="80" height="80" as="geometry" />
        </mxCell>
        <mxCell id="lT2CSq7eGdLM_32b_8D1-30" value="mobile" style="sketch=0;outlineConnect=0;fontColor=#232F3E;gradientColor=none;fillColor=#232F3D;strokeColor=none;dashed=0;verticalLabelPosition=bottom;verticalAlign=top;align=center;html=1;fontSize=12;fontStyle=0;aspect=fixed;pointerEvents=1;shape=mxgraph.aws4.mobile_client;" parent="1" vertex="1">
          <mxGeometry x="163.01999999999998" y="1665" width="41" height="78" as="geometry" />
        </mxCell>
        <mxCell id="lT2CSq7eGdLM_32b_8D1-36" value="" style="rounded=1;whiteSpace=wrap;html=1;fontColor=#000000;dashed=1;fillColor=none;" parent="1" vertex="1">
          <mxGeometry x="342" y="1280" width="348" height="490" as="geometry" />
        </mxCell>
        <mxCell id="lT2CSq7eGdLM_32b_8D1-39" value="" style="rounded=1;whiteSpace=wrap;html=1;fontColor=#000000;dashed=1;fillColor=none;" parent="1" vertex="1">
          <mxGeometry x="361" y="1300" width="310" height="300" as="geometry" />
        </mxCell>
        <mxCell id="lT2CSq7eGdLM_32b_8D1-41" value="" style="endArrow=classic;startArrow=classic;html=1;rounded=0;fontColor=#000000;entryX=0;entryY=0.5;entryDx=0;entryDy=0;exitX=1;exitY=0.5;exitDx=0;exitDy=0;" parent="1" source="lT2CSq7eGdLM_32b_8D1-33" target="lT2CSq7eGdLM_32b_8D1-36" edge="1">
          <mxGeometry width="50" height="50" relative="1" as="geometry">
            <mxPoint x="280" y="1610" as="sourcePoint" />
            <mxPoint x="330" y="1560" as="targetPoint" />
          </mxGeometry>
        </mxCell>
        <mxCell id="lT2CSq7eGdLM_32b_8D1-42" value="EAST Experimental Data Gateway" style="text;html=1;strokeColor=none;fillColor=none;align=center;verticalAlign=middle;whiteSpace=wrap;rounded=0;dashed=1;labelBackgroundColor=none;fontColor=#000000;" parent="1" vertex="1">
          <mxGeometry x="379" y="1330" width="260" as="geometry" />
        </mxCell>
        <mxCell id="lT2CSq7eGdLM_32b_8D1-43" value="" style="rounded=1;whiteSpace=wrap;html=1;fontColor=#000000;dashed=1;fillColor=none;" parent="1" vertex="1">
          <mxGeometry x="361" y="1630" width="149" height="120" as="geometry" />
        </mxCell>
        <mxCell id="lT2CSq7eGdLM_32b_8D1-44" value="" style="rounded=1;whiteSpace=wrap;html=1;fontColor=#000000;dashed=1;fillColor=none;" parent="1" vertex="1">
          <mxGeometry x="522" y="1630" width="149" height="120" as="geometry" />
        </mxCell>
        <mxCell id="lT2CSq7eGdLM_32b_8D1-46" value="Distributed Link Tracking" style="text;html=1;strokeColor=none;fillColor=none;align=center;verticalAlign=middle;whiteSpace=wrap;rounded=0;dashed=1;labelBackgroundColor=none;fontColor=#000000;" parent="1" vertex="1">
          <mxGeometry x="1018.38" y="1724" width="77.5" height="30" as="geometry" />
        </mxCell>
        <mxCell id="lT2CSq7eGdLM_32b_8D1-47" value="&lt;span style=&quot;color: rgb(0, 0, 0); font-family: Helvetica; font-size: 12px; font-style: normal; font-variant-ligatures: normal; font-variant-caps: normal; font-weight: 400; letter-spacing: normal; orphans: 2; text-align: center; text-indent: 0px; text-transform: none; widows: 2; word-spacing: 0px; -webkit-text-stroke-width: 0px; background-color: rgb(248, 249, 250); text-decoration-thickness: initial; text-decoration-style: initial; text-decoration-color: initial; float: none; display: inline !important;&quot;&gt;Terminal Equipment&lt;/span&gt;" style="text;whiteSpace=wrap;html=1;fontSize=12;fontColor=#000000;" parent="1" vertex="1">
          <mxGeometry x="129" y="1330" width="220" height="40" as="geometry" />
        </mxCell>
        <mxCell id="lT2CSq7eGdLM_32b_8D1-48" value="Microservice Registry" style="text;html=1;strokeColor=none;fillColor=none;align=center;verticalAlign=middle;whiteSpace=wrap;rounded=0;dashed=1;labelBackgroundColor=none;fontColor=#000000;" parent="1" vertex="1">
          <mxGeometry x="866.13" y="1724" width="60" height="30" as="geometry" />
        </mxCell>
        <mxCell id="lT2CSq7eGdLM_32b_8D1-49" value="" style="shape=image;html=1;verticalAlign=top;verticalLabelPosition=bottom;labelBackgroundColor=#ffffff;imageAspect=0;aspect=fixed;image=https://cdn0.iconfinder.com/data/icons/communication-technology/500/list-128.png;dashed=1;fontSize=12;fontColor=#000000;fillColor=none;movable=0;resizable=0;rotatable=0;deletable=0;editable=0;connectable=0;" parent="1" vertex="1">
          <mxGeometry x="414" y="1660" width="50" height="50" as="geometry" />
        </mxCell>
        <mxCell id="lT2CSq7eGdLM_32b_8D1-50" value="" style="shape=image;html=1;verticalAlign=top;verticalLabelPosition=bottom;labelBackgroundColor=#ffffff;imageAspect=0;aspect=fixed;image=https://cdn0.iconfinder.com/data/icons/communication-technology/500/list-128.png;dashed=1;fontSize=12;fontColor=#000000;fillColor=none;movable=0;resizable=0;rotatable=0;deletable=0;editable=0;connectable=0;" parent="1" vertex="1">
          <mxGeometry x="456" y="1704" width="50" height="50" as="geometry" />
        </mxCell>
        <mxCell id="lT2CSq7eGdLM_32b_8D1-51" value="" style="shape=image;html=1;verticalAlign=top;verticalLabelPosition=bottom;labelBackgroundColor=#ffffff;imageAspect=0;aspect=fixed;image=https://cdn0.iconfinder.com/data/icons/communication-technology/500/list-128.png;dashed=1;fontSize=12;fontColor=#000000;fillColor=none;movable=0;resizable=0;rotatable=0;deletable=0;editable=0;connectable=0;" parent="1" vertex="1">
          <mxGeometry x="374" y="1704" width="50" height="50" as="geometry" />
        </mxCell>
        <mxCell id="lT2CSq7eGdLM_32b_8D1-53" value="" style="endArrow=classic;startArrow=classic;html=1;rounded=0;fontColor=#000000;dashed=1;movable=0;resizable=0;rotatable=0;deletable=0;editable=0;connectable=0;" parent="1" edge="1">
          <mxGeometry width="50" height="50" relative="1" as="geometry">
            <mxPoint x="452" y="1684.44" as="sourcePoint" />
            <mxPoint x="482" y="1714.44" as="targetPoint" />
            <Array as="points">
              <mxPoint x="482" y="1684.44" />
            </Array>
          </mxGeometry>
        </mxCell>
        <mxCell id="lT2CSq7eGdLM_32b_8D1-56" value="" style="endArrow=classic;startArrow=classic;html=1;rounded=0;fontColor=#000000;dashed=1;movable=0;resizable=0;rotatable=0;deletable=0;editable=0;connectable=0;" parent="1" edge="1">
          <mxGeometry width="50" height="50" relative="1" as="geometry">
            <mxPoint x="410" y="1730" as="sourcePoint" />
            <mxPoint x="470" y="1730" as="targetPoint" />
            <Array as="points" />
          </mxGeometry>
        </mxCell>
        <mxCell id="lT2CSq7eGdLM_32b_8D1-57" value="" style="endArrow=classic;startArrow=classic;html=1;rounded=0;fontColor=#000000;dashed=1;" parent="1" edge="1">
          <mxGeometry width="50" height="50" relative="1" as="geometry">
            <mxPoint x="400" y="1714.66" as="sourcePoint" />
            <mxPoint x="427" y="1684.22" as="targetPoint" />
            <Array as="points">
              <mxPoint x="400" y="1684.66" />
            </Array>
          </mxGeometry>
        </mxCell>
        <mxCell id="lT2CSq7eGdLM_32b_8D1-59" value="" style="sketch=0;outlineConnect=0;fontColor=#232F3E;gradientColor=none;fillColor=#BF0816;strokeColor=none;dashed=0;verticalLabelPosition=bottom;verticalAlign=top;align=center;html=1;fontSize=12;fontStyle=0;aspect=fixed;shape=mxgraph.aws4.location_service_track;labelBackgroundColor=none;" parent="1" vertex="1">
          <mxGeometry x="572.5" y="1680" width="48" height="48" as="geometry" />
        </mxCell>
        <mxCell id="lT2CSq7eGdLM_32b_8D1-65" value="" style="strokeColor=#dddddd;shadow=1;strokeWidth=1;rounded=1;absoluteArcSize=1;arcSize=2;dashed=1;labelBackgroundColor=none;fontSize=12;fontColor=#000000;fillColor=none;movable=1;resizable=1;rotatable=1;deletable=1;editable=1;connectable=1;" parent="1" vertex="1">
          <mxGeometry x="388.5" y="1360" width="121.5" height="44" as="geometry" />
        </mxCell>
        <mxCell id="lT2CSq7eGdLM_32b_8D1-66" value="Routing" style="sketch=0;dashed=0;connectable=0;html=1;fillColor=#757575;strokeColor=none;shape=mxgraph.gcp2.network_load_balancer;part=1;labelPosition=right;verticalLabelPosition=middle;align=left;verticalAlign=middle;spacingLeft=5;fontSize=12;labelBackgroundColor=none;fontColor=#000000;" parent="lT2CSq7eGdLM_32b_8D1-65" vertex="1">
          <mxGeometry y="0.5" width="32" height="32" relative="1" as="geometry">
            <mxPoint x="5" y="-16" as="offset" />
          </mxGeometry>
        </mxCell>
        <mxCell id="lT2CSq7eGdLM_32b_8D1-67" value="" style="strokeColor=#dddddd;shadow=1;strokeWidth=1;rounded=1;absoluteArcSize=1;arcSize=2;dashed=1;labelBackgroundColor=none;fontSize=12;fontColor=#000000;fillColor=none;" parent="1" vertex="1">
          <mxGeometry x="533.75" y="1360" width="116.25" height="44" as="geometry" />
        </mxCell>
        <mxCell id="lT2CSq7eGdLM_32b_8D1-68" value="Logs" style="sketch=0;dashed=0;connectable=0;html=1;fillColor=#757575;strokeColor=none;shape=mxgraph.gcp2.logs_api;part=1;labelPosition=right;verticalLabelPosition=middle;align=left;verticalAlign=middle;spacingLeft=5;fontSize=12;labelBackgroundColor=none;fontColor=#000000;" parent="lT2CSq7eGdLM_32b_8D1-67" vertex="1">
          <mxGeometry y="0.5" width="32" height="32" relative="1" as="geometry">
            <mxPoint x="5" y="-16" as="offset" />
          </mxGeometry>
        </mxCell>
        <mxCell id="lT2CSq7eGdLM_32b_8D1-69" value="" style="strokeColor=#dddddd;shadow=1;strokeWidth=1;rounded=1;absoluteArcSize=1;arcSize=2;dashed=1;labelBackgroundColor=none;fontSize=12;fontColor=#000000;fillColor=none;movable=0;resizable=0;rotatable=0;deletable=0;editable=0;connectable=0;" parent="1" vertex="1">
          <mxGeometry x="389" y="1420" width="121" height="44" as="geometry" />
        </mxCell>
        <mxCell id="lT2CSq7eGdLM_32b_8D1-70" value="Memcache" style="sketch=0;dashed=0;connectable=0;html=1;fillColor=#757575;strokeColor=none;shape=mxgraph.gcp2.memcache;part=1;labelPosition=right;verticalLabelPosition=middle;align=left;verticalAlign=middle;spacingLeft=5;fontSize=12;labelBackgroundColor=none;fontColor=#000000;movable=0;resizable=0;rotatable=0;deletable=0;editable=0;" parent="lT2CSq7eGdLM_32b_8D1-69" vertex="1">
          <mxGeometry y="0.5" width="32" height="32" relative="1" as="geometry">
            <mxPoint x="5" y="-16" as="offset" />
          </mxGeometry>
        </mxCell>
        <mxCell id="lT2CSq7eGdLM_32b_8D1-75" value="" style="strokeColor=#dddddd;shadow=1;strokeWidth=1;rounded=1;absoluteArcSize=1;arcSize=2;dashed=1;labelBackgroundColor=none;fontSize=12;fontColor=#000000;fillColor=none;movable=1;resizable=1;rotatable=1;deletable=1;editable=1;connectable=1;" parent="1" vertex="1">
          <mxGeometry x="533.75" y="1420" width="118.25" height="45" as="geometry" />
        </mxCell>
        <mxCell id="MmMTeVmZbDbu7pug85OJ-11" value="Encryption" style="text;html=1;strokeColor=none;fillColor=none;align=center;verticalAlign=middle;whiteSpace=wrap;rounded=0;movable=1;resizable=1;rotatable=1;deletable=1;editable=1;connectable=1;" vertex="1" parent="1">
          <mxGeometry x="575" y="1428" width="60" height="30" as="geometry" />
        </mxCell>
        <mxCell id="MmMTeVmZbDbu7pug85OJ-12" value="" style="fillColor=#999999;verticalLabelPosition=bottom;sketch=0;html=1;strokeColor=#ffffff;verticalAlign=top;align=center;points=[[0.145,0.145,0],[0.5,0,0],[0.855,0.145,0],[1,0.5,0],[0.855,0.855,0],[0.5,1,0],[0.145,0.855,0],[0,0.5,0]];pointerEvents=1;shape=mxgraph.cisco_safe.compositeIcon;bgIcon=ellipse;resIcon=mxgraph.cisco_safe.capability.standardized_system_images;" vertex="1" parent="1">
          <mxGeometry x="164.57" y="1283" width="43" height="43" as="geometry" />
        </mxCell>
        <mxCell id="MmMTeVmZbDbu7pug85OJ-19" value="" style="shape=image;imageAspect=0;aspect=fixed;verticalLabelPosition=bottom;verticalAlign=top;image=data:image/jpeg,/9j/4AAQSkZJRgABAQAAAQABAAD/4gIoSUNDX1BST0ZJTEUAAQEAAAIYAAAAAAQwAABtbnRyUkdCIFhZWiAAAAAAAAAAAAAAAABhY3NwAAAAAAAAAAAAAAAAAAAAAAAAAAAAAAAAAAAAAQAA9tYAAQAAAADTLQAAAAAAAAAAAAAAAAAAAAAAAAAAAAAAAAAAAAAAAAAAAAAAAAAAAAAAAAAAAAAAAAAAAAlkZXNjAAAA8AAAAHRyWFlaAAABZAAAABRnWFlaAAABeAAAABRiWFlaAAABjAAAABRyVFJDAAABoAAAAChnVFJDAAABoAAAAChiVFJDAAABoAAAACh3dHB0AAAByAAAABRjcHJ0AAAB3AAAADxtbHVjAAAAAAAAAAEAAAAMZW5VUwAAAFgAAAAcAHMAUgBHAEIAAAAAAAAAAAAAAAAAAAAAAAAAAAAAAAAAAAAAAAAAAAAAAAAAAAAAAAAAAAAAAAAAAAAAAAAAAAAAAAAAAAAAAAAAAAAAAAAAAAAAAAAAAFhZWiAAAAAAAABvogAAOPUAAAOQWFlaIAAAAAAAAGKZAAC3hQAAGNpYWVogAAAAAAAAJKAAAA+EAAC2z3BhcmEAAAAAAAQAAAACZmYAAPKnAAANWQAAE9AAAApbAAAAAAAAAABYWVogAAAAAAAA9tYAAQAAAADTLW1sdWMAAAAAAAAAAQAAAAxlblVTAAAAIAAAABwARwBvAG8AZwBsAGUAIABJAG4AYwAuACAAMgAwADEANv/bAEMAAwICAgICAwICAgMDAwMEBgQEBAQECAYGBQYJCAoKCQgJCQoMDwwKCw4LCQkNEQ0ODxAQERAKDBITEhATDxAQEP/bAEMBAwMDBAMECAQECBALCQsQEBAQEBAQEBAQEBAQEBAQEBAQEBAQEBAQEBAQEBAQEBAQEBAQEBAQEBAQEBAQEBAQEP/AABEIAHsAZAMBIgACEQEDEQH/xAAdAAACAgMBAQEAAAAAAAAAAAAACAEHBQYJBAMC/8QAUBAAAQIEAwMGBBEHDQEAAAAAAQIDAAQFBgcRIQgSMRMiQVFhcRQydaEWMzY3QlJicnSBkZKys8HC0RUjY4KTlKIXGCQlNERFRlVWZGWDhP/EABQBAQAAAAAAAAAAAAAAAAAAAAD/xAAUEQEAAAAAAAAAAAAAAAAAAAAA/9oADAMBAAIRAxEAPwDqkBlAeGkGY4RibiuOj2tSH67XZ5uVkpdPKLccOQyy4DrPZAZPfTlnwjV7mxMsW0ck3DdEjJqJy3FOjeHeBqIUfFzamui8H3aXZjztGo6eaFp0fmO1R9gn3I1ijX5iamnHH5x9x553nqW4okq71HWAf5W05g0lW6bpQf8AzVGcoONGGFyuBmk3lIOO5elrc3D8io5wwJWUK3kaK64Dqkh1LqA404hxChvAg5gjrjXbmv8Aty0yEVuaWwOk8ipSR+sBlCOYZ4+31hzNtttTy6lSyr87IzLhWN39Gs6g+aHRw/xEtDFy2xUaYpp5OiZmUfAUtlR9ipPb1wHnkcdML5txLaLmZbLmo5VJTnG5Uut0mtS4mqVUZeaQellYVl3joim8TNnWkVtt6sWc2mRn8ipUtwZePZ7U92kLtI1S6rGq7zUlOTlLnpdYbdbSooyWdRmk8YB+zllwiRkBwyikMItoBm6Jhu3rs5GVqKkgMzAOTcx2HPxVdnCLuzSRnnAfSCIggPwshKczCM7T2Lz973a9alKmv6korpaKUnSYfQees+5B5o6wFdcNti3dK7Mw4uC5GVkPSkisMnqeVzEfxLTHNskrcLzqlKUpW+VKOZVAfmA6adJgjf8AB3CGs4t1p2SlHDKyEpkucnFJz3M+CE+76eqA0CD4uGkPBJbIGFbMimXmxUnnstXvCCnzDSKJx12d5zC9kXHQ5p2eoRcDagtP52WJOQ3utHb2wFKxuWFGI9Twyu+Ur8mta5UlLc7LA5JeYPjZ+6A5yeoxpvRAYDqNSavIVumStYpz4elptlD7LieCkLGYMU1tH4ZsVakKvakM7s/IJHhYSPTmM+cr3yOOfVmOqPxsg3UqvYarocy8VP0CaXLJz1PIq56POVpHYmLwm5GWnpR2Smmw4y82ppxBGikq4iA57NuKQsONlSXEr3wtJyKYbzAPEZV7W0qnVV3eqtKShp4k6vN+wd7zrn3QqlzUY27clUoiyVCQnHpdCiNVBK90ebWNuwLuJduYk0r88UMVBfgLqehQc0Tn+uUQDqiCAcIICodqdShgZce70rks/wB6ZhBI6NY2W49deFVyUSWbLjzspyzSAPHcaUHEp+VAEc5TwgD44dfY4RIjCyadld3whVWfTMEDXfSlG6O4Iy+UwlGcWngXjbO4R1Z1mZZcmqNPqBmWEnVCxryqOshOiuuA6AjIpz6OoxpGNTdPdwoupNQCOR/JE0QF+3DZKP4wmMLJbSGEM5TlVA3WwyhA5zLySl35sL9tAbR8pftMVZ1nNvs0lSv6VMOc1Uwj2oTx3PPAL4YIDAB5ss4Bqdhpxe/eTZ8TOnqHfk9pDX+y+OF22MrbdplhVK4phG6axOhDOnjNMp3Qr56nPkEMK8+2yhTzi0pQlJUok5ZDLiYBJ8awgYqXEEZbvhG98e4iMDZSli8KEWzz01KVy/bIiLwrIuK66vW0E7k9OvPt5+0K80fwaRmsG6E5XsS6DKI8RmZTOOHo3GecPOkQDxp8Ud0EAggPkSFJAI0IyhAdonCuYw1vaYmpOXIo1WcXMyawOY2s8WewJ6O8dUP+SBkN05GNdvixqBiBQpi27ilEvSzydFZc9tfQpJ6DAczPs4wd0Wjirs/3lhtNuTCJV6qUYq3mpxlOZbH6QDxVeaKu11BHA5fHARBBAB05acYCSOCus5CM5ZVnVm/Lkk7aoUupUxNuEKPQy30uqPtU9Ee+xsML1xFnkSdt0h1bee45MrG6y32lfDPuh3sH8GLdwkoqgyoTNTmgDOTy05FXuE+1QOgQG52lbdPtC3KdbVLbCJWnS6JdsZcSNCo9qjzj2mKz2iMRWLctxdrU57OqVhCkLCTq0wPGV8Z5vdn1R6sTMeLctBlyn0N9mp1XLcSlCs2mj7tQ49whW6lUq3d1adn51b89Pzq97IAqJPuQPY9kBjRroIaPZtw5dt6kvXdVpQtz1TARLoUNWpYcNOgq6fep6zGAwk2e5jl2rivyX3eTO+xIngo9bnZ2QxaEIbQEISAlOiQBwgPvBECCAmCCIOXTAeZ5lmZbWy82lbbid1SVJzSU9WUINtM0Gk21i1U5KjyTcqw6ww/yTackb6kc8gdGcP8AK1GghEdrf16J74DLfRgKYj32/Ky9Qr1NkZkK5KYmmGlhPShbm7lHgHXGWtMD0U0f4fK/TgOl1GolMoUg3TaVIsyssyndQ22gJCRp1ceHGKv2mq5U6RY0qzTZpcv4dPIl3lIUUqUjk1ryBGo8QRcQHMHdFHbV/qPpHlMfUuQCu5byt9cNBsv29SRaL1wGSbXPPTrjfLKTmUoTu5AZ+L4x4Qr5MNrsxnPDZSf+xe+7AXDExA4RMAQQQQHmmJyWk2lPzj6GWk5ZuOKCUjM5DMnTiRHi9Edvn/HJA/8A0I/GK12oluN4IV4tqKSFSZ3gcv70zCFCbmiM/CHvnmA6f+iKg55/l2Q7hMo/GEc2rZqWnsYJyYk5ht5pUlLALbUFDMJ1GYio/C5vP+0PfPMfNxa3jm64VK9so5wERlbS9VVH+Hyv04xUZW0fVVRfh8r9OA6hJ9LT3RRm1h6kaP5UH1LkXmn0tPdFGbWHqRo/lQfUuQCvH7IbbZi9bdXlF77sKSfshttmL1t1eUXvuwFwDhExA4RMAQQQQFP7UxzwLuInTNcln+9MwgvHrjo/i9Y09iRYNTs6Rm2ZR2eLJS88gqSnk3Ur4D3kLoNiO6VDP0a0zX/jOfjALXqID19EMqdiK6gMzetL/dnPxil8TMPZvDG7HLUnqi1POMsNPF1pBSCV++gNSjK2l6qqP8Plfpxioy1pA+iqj6cZ6Vy+fAdQU+lp7oozaw9SNH8qD6lyLzT4ie6KM2sNbRpGX+pj6lyAV4/ZDbbMXrbq8ovfdhST9kNtsxeturyi992AuAcImIHCJgCCCCAIIIgwEHUZwou0VgriLeuJk1XbcoBmZF2Vl20u8oBz0J6obodMfhXGA5+/zZMY/wDaqv2qYyFvbOGL0hX6ZOvWwtDMvNsuuEuA7qAvWH0ggBIyAB6BFUbQdm1+87ap8hbskZl9qeDqxnlkjcWPtEWv0iIHEwCXfyC4oD/Lyv2iYYfAe1q5aFkGk16VMtMmded5PPPmHdy1iyczEEnMQH1iYgcImAIIIID/2Q==;movable=1;resizable=1;rotatable=1;deletable=1;editable=1;connectable=1;" vertex="1" parent="1">
          <mxGeometry x="543" y="1428" width="27.77" height="34.16" as="geometry" />
        </mxCell>
        <mxCell id="MmMTeVmZbDbu7pug85OJ-22" value="" style="shape=mxgraph.gcp2.doubleRect;strokeColor=#dddddd;shadow=1;strokeWidth=1;rounded=1;absoluteArcSize=1;arcSize=2;sketch=0;fillColor=none;dashed=1;" vertex="1" parent="1">
          <mxGeometry x="764.13" y="1634" width="198" height="68" as="geometry" />
        </mxCell>
        <mxCell id="MmMTeVmZbDbu7pug85OJ-23" value="&lt;font color=&quot;#000000&quot;&gt;Name&lt;/font&gt;&lt;br&gt;Identity-Aware Proxy" style="editableCssRules=.*;html=1;fontColor=#999999;shape=image;verticalLabelPosition=middle;labelBackgroundColor=#ffffff;verticalAlign=middle;labelPosition=right;align=left;spacingLeft=20;part=1;points=[];imageAspect=0;image=data:image/svg+xml,PHN2ZyB4bWxucz0iaHR0cDovL3d3dy53My5vcmcvMjAwMC9zdmciIHhtbG5zOnY9Imh0dHBzOi8vdmVjdGEuaW8vbmFubyIgd2lkdGg9IjE5Ljk5IiBoZWlnaHQ9IjEwLjQxIiB2aWV3Qm94PSIwIDAgMTkuOTkgMTAuNDEiPiYjeGE7CTxwYXRoIGQ9Ik05Ljg0LjIxYTUuMSA1LjEgMCAxIDAgNS4xIDUuMWgwYTUuMSA1LjEgMCAwIDAtNS4xLTUuMXptMCA5LjA4YTQgNCAwIDEgMSA0LTRoMGE0IDQgMCAwIDEtNCA0LjAxeiIgZmlsbD0iIzQyODVmNCIvPiYjeGE7CTxwYXRoIGQ9Ik0xMS43NiA1LjkyYTIuMDkgMi4wOSAwIDAgMC0uMjgtLjIyIDMuMTEgMy4xMSAwIDAgMC0yLjYxLS4yOCAyLjMxIDIuMzEgMCAwIDAtLjg5LjQ3Ljg2Ljg2IDAgMCAwLS4zNy42NXYxaDQuNDd2LS44MmExIDEgMCAwIDAtLjMyLS44ek05Ljg0IDQuNzRhMS4xNiAxLjE2IDAgMSAwLTEuMTctMS4xNWgwYTEuMTcgMS4xNyAwIDAgMCAxLjE3IDEuMTV6IiBmaWxsPSIjNjY5ZGY2Ii8+JiN4YTsJPHBhdGggZD0iTTE2LjI5IDUuNmgyLjIxbC0uNzcuNzhoMS4wNGwxLjIyLTEuMjMtMS4yMi0xLjIyaC0xLjA0bC43Ny43N2gtMi4yMXoiIGZpbGw9IiNhZWNiZmEiLz4mI3hhOwk8cGF0aCBkPSJNMTcuODggMS43M1YwaC0xLjczbC0uNzMuNzRoMS4wOWwtLjk4Ljk3LjY0LjY0Ljk4LS45N3YxLjA5em0tMi40NiA3Ljk1bC43My43M2gxLjczVjguNjhsLS43My0uNzN2MS4wOWwtLjk4LS45Ny0uNjQuNjMuOTguOTh6TTEuMzQgMy44NkExLjM1IDEuMzUgMCAxIDAgMi43IDUuMjFhMS4zNSAxLjM1IDAgMCAwLTEuMzYtMS4zNXptMCAyLjFhLjc2Ljc2IDAgMSAxIC43Ni0uNzVoMGEuNzYuNzYgMCAwIDEtLjc2Ljc1eiIgZmlsbD0iIzY2OWRmNiIvPiYjeGE7PC9zdmc+;" vertex="1" parent="MmMTeVmZbDbu7pug85OJ-22">
          <mxGeometry width="30" height="15" relative="1" as="geometry">
            <mxPoint x="15" y="22" as="offset" />
          </mxGeometry>
        </mxCell>
        <mxCell id="MmMTeVmZbDbu7pug85OJ-25" value="" style="editableCssRules=.*;html=1;fontColor=#999999;shape=image;verticalLabelPosition=middle;labelBackgroundColor=#ffffff;verticalAlign=middle;labelPosition=right;align=left;spacingLeft=20;part=1;points=[];imageAspect=0;image=data:image/svg+xml,PHN2ZyB4bWxucz0iaHR0cDovL3d3dy53My5vcmcvMjAwMC9zdmciIHhtbG5zOnY9Imh0dHBzOi8vdmVjdGEuaW8vbmFubyIgd2lkdGg9IjE5Ljk5IiBoZWlnaHQ9IjEwLjQxIiB2aWV3Qm94PSIwIDAgMTkuOTkgMTAuNDEiPiYjeGE7CTxwYXRoIGQ9Ik05Ljg0LjIxYTUuMSA1LjEgMCAxIDAgNS4xIDUuMWgwYTUuMSA1LjEgMCAwIDAtNS4xLTUuMXptMCA5LjA4YTQgNCAwIDEgMSA0LTRoMGE0IDQgMCAwIDEtNCA0LjAxeiIgZmlsbD0iIzQyODVmNCIvPiYjeGE7CTxwYXRoIGQ9Ik0xMS43NiA1LjkyYTIuMDkgMi4wOSAwIDAgMC0uMjgtLjIyIDMuMTEgMy4xMSAwIDAgMC0yLjYxLS4yOCAyLjMxIDIuMzEgMCAwIDAtLjg5LjQ3Ljg2Ljg2IDAgMCAwLS4zNy42NXYxaDQuNDd2LS44MmExIDEgMCAwIDAtLjMyLS44ek05Ljg0IDQuNzRhMS4xNiAxLjE2IDAgMSAwLTEuMTctMS4xNWgwYTEuMTcgMS4xNyAwIDAgMCAxLjE3IDEuMTV6IiBmaWxsPSIjNjY5ZGY2Ii8+JiN4YTsJPHBhdGggZD0iTTE2LjI5IDUuNmgyLjIxbC0uNzcuNzhoMS4wNGwxLjIyLTEuMjMtMS4yMi0xLjIyaC0xLjA0bC43Ny43N2gtMi4yMXoiIGZpbGw9IiNhZWNiZmEiLz4mI3hhOwk8cGF0aCBkPSJNMTcuODggMS43M1YwaC0xLjczbC0uNzMuNzRoMS4wOWwtLjk4Ljk3LjY0LjY0Ljk4LS45N3YxLjA5em0tMi40NiA3Ljk1bC43My43M2gxLjczVjguNjhsLS43My0uNzN2MS4wOWwtLjk4LS45Ny0uNjQuNjMuOTguOTh6TTEuMzQgMy44NkExLjM1IDEuMzUgMCAxIDAgMi43IDUuMjFhMS4zNSAxLjM1IDAgMCAwLTEuMzYtMS4zNXptMCAyLjFhLjc2Ljc2IDAgMSAxIC43Ni0uNzVoMGEuNzYuNzYgMCAwIDEtLjc2Ljc1eiIgZmlsbD0iIzY2OWRmNiIvPiYjeGE7PC9zdmc+;" vertex="1" parent="1">
          <mxGeometry x="852" y="1576.5" width="30" height="15" as="geometry" />
        </mxCell>
        <mxCell id="MmMTeVmZbDbu7pug85OJ-26" value="" style="shape=image;imageAspect=0;aspect=fixed;verticalLabelPosition=bottom;verticalAlign=top;shadow=1;dashed=1;sketch=0;fillStyle=auto;fillColor=none;image=data:image/jpeg,/9j/4AAQSkZJRgABAQAAAQABAAD/4gIoSUNDX1BST0ZJTEUAAQEAAAIYAAAAAAQwAABtbnRyUkdCIFhZWiAAAAAAAAAAAAAAAABhY3NwAAAAAAAAAAAAAAAAAAAAAAAAAAAAAAAAAAAAAQAA9tYAAQAAAADTLQAAAAAAAAAAAAAAAAAAAAAAAAAAAAAAAAAAAAAAAAAAAAAAAAAAAAAAAAAAAAAAAAAAAAlkZXNjAAAA8AAAAHRyWFlaAAABZAAAABRnWFlaAAABeAAAABRiWFlaAAABjAAAABRyVFJDAAABoAAAAChnVFJDAAABoAAAAChiVFJDAAABoAAAACh3dHB0AAAByAAAABRjcHJ0AAAB3AAAADxtbHVjAAAAAAAAAAEAAAAMZW5VUwAAAFgAAAAcAHMAUgBHAEIAAAAAAAAAAAAAAAAAAAAAAAAAAAAAAAAAAAAAAAAAAAAAAAAAAAAAAAAAAAAAAAAAAAAAAAAAAAAAAAAAAAAAAAAAAAAAAAAAAAAAAAAAAFhZWiAAAAAAAABvogAAOPUAAAOQWFlaIAAAAAAAAGKZAAC3hQAAGNpYWVogAAAAAAAAJKAAAA+EAAC2z3BhcmEAAAAAAAQAAAACZmYAAPKnAAANWQAAE9AAAApbAAAAAAAAAABYWVogAAAAAAAA9tYAAQAAAADTLW1sdWMAAAAAAAAAAQAAAAxlblVTAAAAIAAAABwARwBvAG8AZwBsAGUAIABJAG4AYwAuACAAMgAwADEANv/bAEMAAwICAgICAwICAgMDAwMEBgQEBAQECAYGBQYJCAoKCQgJCQoMDwwKCw4LCQkNEQ0ODxAQERAKDBITEhATDxAQEP/bAEMBAwMDBAMECAQECBALCQsQEBAQEBAQEBAQEBAQEBAQEBAQEBAQEBAQEBAQEBAQEBAQEBAQEBAQEBAQEBAQEBAQEP/AABEIAJEBCAMBIgACEQEDEQH/xAAdAAEAAgIDAQEAAAAAAAAAAAAAAQgGBwIFCQQD/8QAVRAAAQMCAwUDBgcJDAgHAAAAAQACAwQFBgcREiExQVEIImETMlJxgZEUFyNCYpOhFTNWcoKSsdHhFhhDU1Vzo7KzwcLwJCc0VGNllKI2N0RXdLTD/8QAFAEBAAAAAAAAAAAAAAAAAAAAAP/EABQRAQAAAAAAAAAAAAAAAAAAAAD/2gAMAwEAAhEDEQA/APVNERAREQEREBERAREQEUagcSmo6oJUFNR1C4vlijaXySMa1vEuIACD8xr1HuXMEcNd/qWGX/N/LTDBIu+LrdG4cWMlD3fZqsDufa5yjopdiCpuVUesVMdPeg3fp13+xQfXp7FoNvbKyyLtg0N1aOvkgu1tfauyhubvJy3WtonHiZ6YtaPykG6VOg6rGbBmLgfE0YfZMV26r2uAZUNB9x0KyUu0G5BzRRqOqahBKIiAiLr7pdrfZaGa53OrjgpoGbcksjtAB0QfcCDzQ6KrGL+03ieS8yx4S+CwW2PuxumiD3yD+MOvAeC6f98xmd/vVB/0g/Wgt8D1C5Ag8Cqf/vl8zj/6mg/6UfrVkMq8R3DFmBbVf7rsGrqo3ukMY0bqJHN/woMxREQEREBERAREQEREBERARRqE1HUIOEjgB5oK+etraSio31ddNFBDENp75HBrWjqSeC6LG+PMO5f2KW/YirWQQxNOw0nvSu9Bg5lUbzbz2xZmnWPpnTvt9kbIHQ0UT9A4dZDzP2IN9Zk9rvD1ifNacDUn3WqW9x1TJ3acO+ieLv0Kt2L85cysbyyG9Ylqmwu4U1O8wxD1Af3lYTzXeYYwVinGlWKHDdjq6555sjOy31u4IOjc5xLnueXOdzKblZPCXYxxLXsZUYuxDT25zvOhpm+VePb5q2NbOxxlpSxkXKsutc/qZvJ/1QgpNuHNNyva/sn5OvbsG2VoHX4U9dDeOxfl7Wtd9yrvc6Fx83VwlA94QUzgmqKWVtTSTyRSDzZGO2XN9RC2ZgbtFZnYJlZFDfH3Ohj40lcdsO/Fdxb9qzDGXY+x5Yo31eGKunvULRr5JvyU3uO4+xaOu1ivOHquSgvdrqKKpY7QxzsLSR1B5oLuZYdp3BmOiy2XWRtlurhuincPJSn6D+XqO9bqY7Vu0HNIPAheVbXlrvKMW/Mk+05ecHTQYcxrUSXGyeY2dx2pqUdST5zfDigu7qN2p4qV19ou9uvlugu9qq4qqlqWCSKWJ2rXN6jxX36jqg466EFYJmTlo/MamhoJ8QVNBSw950MTQQ930teKzvceXBYhmXmHbcurEbrWxmWaZ3kqWED75J6JPJBoLMPJLB2XlmkuVzxjUuqZBpS0wiZtTP6eA8VpfwPI6Fd3i7Ft8xrd5Lze6t0kjzo1gPcY30W9AvtwDl7fMwrr8AtMWxDFvqKlw7sTfHqfBBi54+xXUyI/8qcP/wA1N/bPVMaulNJVzUjn6mF72aq5+RTXNypw+HNI+RmO8cjM/RBsEcFKgcFKAiIgIo1CajqglFGo6pqOqCUUajqmoQSiIg4OI07wXT4mxLaMJWOsv96qGw0dFGZJHuPuA6kndou3cW8CRuVLu1lmvLiPE3xe2ioH3Os8gdVbLvv1V4/RZvGnXU8gg1rm3mxfM1sRPudc90VBC9zaGjB7sMfInq53MrBWhznBjAXOcdABxJUajTXXcrSdmTISnlp6fMfGdIXhxEtro5GajfwnePH5oQdRkt2VqvEMUGJcwmTUlAflIaBoIllb/wAQ8m/arZWDDlkw3bo7bYbRT0dLCAGxRMDQP7z7V3AGjeKgjdxQSAAEL2tGriF1mIr9bcM2aqvl1qBFS0bDLI/oOgVQ8f534vxhWSCkrJbdbfMjp4XlriPSc4b3ILlNq6Z7thtRE53QOBK/TUHhovPqO93qGX4RFeKwSek2dwP6VuPKftA3e13CCw40qjV0ErvJsq3jSSA9X9WePFBaPgsVxxl1hXH1ufbsSWaGqa4HZk00kjPVruIP2LKWujkYHNcC1w1BB4hSB4oKD5zdnnEGWcr7ta/K3KwvdoJ2s+Upx6Mg/vWoNNBtcv8AOi9Tq2ipbhSyUdbAyaCZpa+N7dprm9CFR7tGZGHLW7DEeHYnnD9wk0LRv+CSn5h+i7Xu9N/QIOHZ3z0qsurxDhvEFWZMO18gadsk/A5XfwjfoO+cOQ38Qdb0wzwztbLE5j45Gh7XtOocCNQQeYXlZ18PsVxuyRmu/EVmfl3fKnarrTGZKJzz3pKXXQt9bTu9RHRBZHdpquixdhCzY2ss1lvdMJIpB3XAd5jvSaeRXfHZ0UbjyQVLb2bsYDGn3ELh9ytdv7o7tnyXTZ/jPsVlcJYQsuCrMyzWSjbDGxuhdp3pD6TjzK7/AHDQaKNOJKCr+XGRFdibEFVf8W0z4LXFVyOhhI0dU9/7GfarMUVHTW+lZSUlOyKGFuyxjRo1regC+gMDW6NAA8FOh03oOSlFGoQSiIg4Agjgo3cmhTqAOS1VmlnrZsBzOs1vgFxupafkmu7kZ+meXqQbU3cgE1Kppc+0FmXcp3zQ3gULfmxxRgAe9drhrtKY7tMjBeTBc6fXR4c3ZeD+MNyC25LdN6nUaLEcv8w7FmHaRcrXNsyR92enfufE/oR08Vlu7TRBzREQYTmxjSLL/AV5xS4sM1PT6UzSfPnedljfHvFp9QK84KqqnrKqasqpXyTzyOklkcdXPc7z369Va7tsYldHbMP4Pp5f9omkrp2D0Y+6z+tJ+aqmc9Ag2LkLlqMzsf0lsqo3G20OlVcCN3ybd7G/lnYHqJXoTT0lPSQx09PG1kcLGxxtaNGta3gAOgWiex9g2Kw5dyYnliHwnENQZWvI3/B4+5GPeHn8oLf2g0Go4IOaFSiDRXapulTTYStdphLmR1dYZJdD57WMIDT4bUjT+SqutOo1Vx8+8FVOM8ESC2wOlr7dKKuCMcX6Atc32gk+toVOXNdGS1zS0tOhBGmh8UEEjkgOu48UI1HBfZZbTcb7cqa02umM9VUu8lHGOOvpE9EF0MnLjU3nLWw1tZIZJjS+Sc48XBjiza9zQs4G7d0XRYNw/HhTC9sw/E7bFDTMiLgPOeB3j7Xald5yJQN+gPiuixfhW1Y1w7XYZvMAkpa+F0bxpvaTwc3oWneF3x004Kd2nNB5g4vwvXYNxRc8L3EETW2odBtaaeUjG9r/AG67uq/fL/F1ZgPGNrxXQ7QNvnD5Gg/fY3HZez8xb27aODY6K+WjHNLDoLkw0FVoP4SPVzHevZ2vzVWgneg9SrfcKa6UFPX0UolgqY2SxvHBzHDXX3FfaefgtPdlnErsRZQ22GabbqLO99ukJO/Ru9n/AGPZ7lt9x0BQfopUAjRNR1QNxCjVoU6DTitc4txFjPDlUSJoH0b90cvkBqPWg2MDr6k2R1Wobfmle2VcZuXkpab57I49HLaVtudJdaSOsopmyRSt1BHJB9qKNR1RBi+YWJG4RwZdsQtI26OncYgfnSO7jB6totVMsN2S7Zh4xprUyo2625T7cs8hJ0aBtvcrX59UstXlPfY6dur2xxyaD0WTMJ+wFV67Pd3orPmbQ/DnMayrjmp2PedAx+z19fd9SCxeGsmcCYYo2U0dlhq5gzR9RUND3yevksUzSyHw3d7NV3TDNE2huVNC+SNkQ0jlLRqGkdfELdI2dOS6+8XWgs9sqblcJ2R01LE6WVzuQA10QUqyqxhVYJxrb7h5R7KaWVlPWN17skbvOcR1aO961eRhDmh2vFef0AFzxC0UsX+1VoELAOcj1f6FuxE1unAIP3REQUZ7YlyfV5uNo9e5Q2yCAD6T3Of/AI1ovgtxdq8O+Oy6lxOhp6bY+pYtOjig9LssbQyw5fYds4aGuo7ZSxv05vEY2j+dtH2rKuq6+xuY6y29zNNg0sRb+YF9/IoOaKNQNxK4vlijYZJJGta0akk6ABBHLvFapx52f8KYxq5LpSSPtlwl3vkgaNh7urm8F9OLc/MAYbL6dtwNxqmj71SDaA9buAWsrz2qrxO4x2TDdNTx/wAZUPLne4bkH0R9k+vE3y+KoDD9CA7f6ltjAOUmFMu4/KWyndNWyNDX1U2+Q/q9i0H++ezH8p5tv06fB/2rvbR2q7zEWMveHaepjHnSQP2He47kFmSfAFTuI4LXeCs7MDYxIpqe5fA6s7vIVWjHH1HgVsQOBG01wI6goOag8FKINJdre0suGTVZWloL7XW0tS38qQQn7JSqJL0E7TZa3JDE23w2aX/7MS8+0Ft+w9cnzWrFdqPm01TS1A/La9h/sQrPO6qp3YaD/huMj83yVD+mb9RVsX8EHU4pvow5azcfg5m0exmyD1WH/G7/AMn/AKRd/mHSVdbht0FJC+WTyrDstC1T+5u//wAkVP1aDN/jd/5R/SL5q3NCmuNPJS1VkbLE/k56xH9zd+/kip+rT9zl+/kio+rQfBMYjI4xMc2Iv7jTx967vC2K6zDdZ5RhdJSyu+WiJ3aek3oV0skb4pDFKwskjOmySppaWaunZS00TpJpH7LGt5hBv+13WivFGytoZRJHJwI4jwKLpMEYWfhygcKiVzp6jvSN1OyzwA6+KIO9r7dS3Oimt9XGHwVEbo5GHg5rtxCprmblVe8uLw+SGOae1yu2qasGurPB5HmnxV1NNd/JfNX0NHcKZ9NX0zJ4ZBo6N7Npp9hQVMwx2jcb4eoW0Fa2mujGDRj6kkSN/GPNY/jzN3F+YDPglwqG09G7hSwDRj/WfnKx1w7PWWtxkdK60SUrz/ESOa33LsMPZJZd4dqG1lHYmTTt8185L9PfuQamyDybuLrpT41xLRvp6ekJloqeVvefIeEjgeGzyCszwCgMDRo0aLlpu0QSoKlQUFH+2RaTSZp0lwb5lwtcR/LZI9v9zFoZXB7aeFjX4Xs2LaeLV1sqnU8xaN/k5tNCfU9jfzlT7eBqUHpDk3fo8S5YYZujH7bn22GKQ/8AEjb5N/8A3Mcs2G4aKtPYxxvHcMNXLAs83+kWqf4VTtP+7y73AeqTa1/nArKgjTjwQflUzRU0L6idwZHCC57jyA5qoeaud96xnWVNss0z6Oyxv2WsYdl1R4udxA8FZfNGaSDLrEsschY5trqtHc/vblRbXfoggomh6JoeiAiaHomngg5hzoy1zXOBb32OadCFvjITOe5R3KmwXiiqNVBUkRUVRIe+x/oE8x4laFX2WeaWnu9DPTybEkVRC5rvRft8UHoUOAQqGnujU8lOo6hBontgX2O3ZTG07Q8pdq+nhDerWO8sT6vkh71RwcFYLtiY2jveOaTCdHIJILDAHTbJ41Eu9zfY1rNfxiq/Hdv67kFvOxFaDDh3Et9IOlVWQUo8RCwu/wD2VmANDp4LVvZswq/CmUllp54THVV7DcKgEaHalOo9zQwexbU5ncg5BSo1UoOOm4rXeOMe/BC+z2aRpm00kmG/Y8B4rYuo6r4n2y2uO06ggJ/mm/qQaBoqOsuVUymp43SzSu00G8l3Ulbhwfgylw7B5abSWskb336eb+L0Xfx0VFA7bhpI43nm2MA+9fSdNEHNFCIJREQEREBERAREQYzj3ClHjXCF2wvWACO4074Q4jzHkatf7HaH2LzWvFpuFiu1bY7nC6KsoZ3wSsPAPZ3CB4EL1L2QdxGoVTu15lJJHO3NGxUhLHbEN1Yweb6E3tOjD7D1QaDyyx5XZb40t+KqLae2mcG1MTToJqdw0eD7NT+M0FejFivtsxJaKa+2eoZUUlbEyWORp1BDv715ffoP+St29nfPuXLisGGcRvfJh2smB2ydTSPdwcB6LvnDkguHmTQ1VxwFf6ChgdNNNb5o42N3lxLDuVPfipzF1/8ACNx+r/aruW+vobvSQ3G2VcVRTVDNuOSN201zfWvrIaNXaBBRj4qsxfwRuP1f7U+KrMX8Ebj9X+1Xo0HQJo3oEFF/iqzF/BG4/V/tT4qsxfwRuP1f7VejQdAmyOgQUX+KrMX8Ebj9X+1fRQ5XZhxV1PK/CNw3TMP3r6frV4dkeCbI6BBAPdG7ksLzVzFtuWWEq3EdaWOlawspYCdHTzHzWhd3ijFVjwdZZ7/iCuipKSmbq57zz6Acz4Kgmc2bl0zXxI+4TOfT2ykD46GkJ1a1nJ7vpO59OSDCbtdK693SqvFxnM1XWzvnmeeb3rJco8CTZkY/tmGgxzqaSTy9Y5v8HAw7Rd7QQPWsPAJIaAdTuA6q8vZdymOA8IuxFd6XyV5vobI9r296npx5kfhqO8fEjog3dBFFTwsp4WNayNoa1oGga1fso1HVNoaa6hBG7ouSxJmZGEH4nOEBeofuls6mPa3bXo68NrwWVhw011CB3RvU7gFiWDcw8O44FTHaaofCaN5ingfukjPq5jxWV6jQDUIOaIiAiIgIiICIiAiIgIiII0HFfHcLdR3ainoLjTsnpqmN0ckbxq1zDyIX2A68kO8IKC5+ZF3DKu7vudqjfUYcq36wy6ammPKN3h0PPmtQbuXDjuXqPeLLbMQW6W0Xijiq6OoaWSxSt1DlTXOfsvXzCEs+IsEwS3Kzk7b6YDWelHq+c31b0GIZS59YryqqmU0TjcLM86yUUjtzT1jPI/YrjZeZ1YCzIo2OtN1ZDWuaC+iqHBkrT/i9i87XNLHFjwQ5p0cCNCD4rnT1FRRysnpqiSGZjttj4nFhH4rhvCD1RDjz0XF2oO5wHrC8/sKdpPNjCkTKcX5tfTMGgjrm+Udp+Md4+1bHtfbYvjW7F5wdSTH0oJnNd7igt5q48h7072v7VVp/bfo9nRmCJdf/AJDV0F37a2LKlj47NhW30pPmySSOkcPZwQXBMgY0vk2WNHMnRaszH7ReX+X8D4TcG3O5Ad2kpHBztfpOG5qp/i/PXM3G7HQXbEs0VO7z6ej+SZ9n61gLnOJc9zy4v85zt+qDNMzc2sWZp3NtbfqnYpoztU9FG4iKJvX6TvFYTpp4a7wv3o6GsudRHSUNJLU1EvcZHE0k+4K02SPZXkpJIMU5kwB0sZ26e2ec1p6ydfxeCDqOzVkBJdainzCxnSObRxO27fRSt+/ubwlcD80fNHPmrgDQANA4L84oY6eNkMMQYxjdGgDQNHgv0Gm/TVBO7Z3jitaZ54ixVhnBslVhSkeXSO2KioYNTTxc3ALZZ04r55ooZ4XQ1DWyRSDZLHDVpb4hB59NqqptT8ObUyCoMnlPKl3e2vS2uOqs3kxnhDiKBmGcWVLIrnGwCCpcdltSOvg/wWE53ZIyYbdPirC8Jdaydqpp273U49IfQWlI3yQvEkTi2RvfD2nTZKDIKbEt2wpiye82OsNPURVL3A/Ne3b813UK52X+Jn4ywhbMTSQCGSsh1ewcnB5a7+qqIOLnOc9zy5z+qupkOP8AVTYepil/tnoNhKVA4KUBERAREQEREBERAREQEREBQVKgoNQ5j9m7AGPzJcGUhtN0d3vhVG0ND3fTZwcq2417KeZuGHy1Fppo73St3g0ztJD+Qd6vbpqNCo2Tw2t3QhB5cXGx3a0Svjulqq6Qt7j/AC0TmgerUL4uW9eo9fZbTcmbNwttLVDpLC14+0LEq7JLKm5zeXrcDW2V45+R0+wIPOTQ666FNdN3Neif737J3/2/tf5rv1rsbVlDlpZTrbcD2mE/zId+nVB55WTB+KsSVLKezYcrqyV/mmOBxB9Z4LdWB+x9ji+StqsX1kNnpnecxp8pOfUODfarm0dvpKOPyVLRQQM9GNgaPcF9BOnHT3IMAy9yYwHlpEPuDag+qO91XMNqU+08PYtgbgOCNIPM+5Tu000KCVKIg46bwte5r4PxLiG2trsI32qoblRtOxEyTSOdvonx8VsI67ioIA5IKJ3fG+Ysbp7Jer/cg9pfFPTzOOg+ideIWL/54K9d6y4wViSs+6F7wzRVVVzle06n16cV1xyXywad+D6H2MP60FJuPJXSyHIGVNgdr/BSn+mev3GS+WDt4wdQgeLXfrWVWiz2+x2+G2WmjZS0kDdiOJg0DR4IOzREQEREBERAREQEREBERAREQEREBERAREQEREBERAREQEREBERAREQEREBERAREQf/Z;" vertex="1" parent="1">
          <mxGeometry x="396.75" y="1495.0700000000002" width="45.25" height="24.86" as="geometry" />
        </mxCell>
        <mxCell id="MmMTeVmZbDbu7pug85OJ-27" value="&lt;font color=&quot;#000000&quot;&gt;Name&lt;/font&gt;&lt;br&gt;Identity-Aware Proxy" style="editableCssRules=.*;html=1;fontColor=#999999;shape=image;verticalLabelPosition=middle;labelBackgroundColor=#ffffff;verticalAlign=middle;labelPosition=right;align=left;spacingLeft=20;part=1;points=[];imageAspect=0;image=data:image/svg+xml,PHN2ZyB4bWxucz0iaHR0cDovL3d3dy53My5vcmcvMjAwMC9zdmciIHhtbG5zOnY9Imh0dHBzOi8vdmVjdGEuaW8vbmFubyIgd2lkdGg9IjE5Ljk5IiBoZWlnaHQ9IjEwLjQxIiB2aWV3Qm94PSIwIDAgMTkuOTkgMTAuNDEiPiYjeGE7CTxwYXRoIGQ9Ik05Ljg0LjIxYTUuMSA1LjEgMCAxIDAgNS4xIDUuMWgwYTUuMSA1LjEgMCAwIDAtNS4xLTUuMXptMCA5LjA4YTQgNCAwIDEgMSA0LTRoMGE0IDQgMCAwIDEtNCA0LjAxeiIgZmlsbD0iIzQyODVmNCIvPiYjeGE7CTxwYXRoIGQ9Ik0xMS43NiA1LjkyYTIuMDkgMi4wOSAwIDAgMC0uMjgtLjIyIDMuMTEgMy4xMSAwIDAgMC0yLjYxLS4yOCAyLjMxIDIuMzEgMCAwIDAtLjg5LjQ3Ljg2Ljg2IDAgMCAwLS4zNy42NXYxaDQuNDd2LS44MmExIDEgMCAwIDAtLjMyLS44ek05Ljg0IDQuNzRhMS4xNiAxLjE2IDAgMSAwLTEuMTctMS4xNWgwYTEuMTcgMS4xNyAwIDAgMCAxLjE3IDEuMTV6IiBmaWxsPSIjNjY5ZGY2Ii8+JiN4YTsJPHBhdGggZD0iTTE2LjI5IDUuNmgyLjIxbC0uNzcuNzhoMS4wNGwxLjIyLTEuMjMtMS4yMi0xLjIyaC0xLjA0bC43Ny43N2gtMi4yMXoiIGZpbGw9IiNhZWNiZmEiLz4mI3hhOwk8cGF0aCBkPSJNMTcuODggMS43M1YwaC0xLjczbC0uNzMuNzRoMS4wOWwtLjk4Ljk3LjY0LjY0Ljk4LS45N3YxLjA5em0tMi40NiA3Ljk1bC43My43M2gxLjczVjguNjhsLS43My0uNzN2MS4wOWwtLjk4LS45Ny0uNjQuNjMuOTguOTh6TTEuMzQgMy44NkExLjM1IDEuMzUgMCAxIDAgMi43IDUuMjFhMS4zNSAxLjM1IDAgMCAwLTEuMzYtMS4zNXptMCAyLjFhLjc2Ljc2IDAgMSAxIC43Ni0uNzVoMGEuNzYuNzYgMCAwIDEtLjc2Ljc1eiIgZmlsbD0iIzY2OWRmNiIvPiYjeGE7PC9zdmc+;" vertex="1" parent="1">
          <mxGeometry x="789.13" y="1666" width="30" height="15" as="geometry" />
        </mxCell>
        <mxCell id="MmMTeVmZbDbu7pug85OJ-28" value="" style="strokeColor=#dddddd;shadow=1;strokeWidth=1;rounded=1;absoluteArcSize=1;arcSize=2;dashed=1;labelBackgroundColor=none;fontSize=12;fontColor=#000000;fillColor=none;movable=1;resizable=1;rotatable=1;deletable=1;editable=1;connectable=1;" vertex="1" parent="1">
          <mxGeometry x="396.75" y="1485" width="118.25" height="45" as="geometry" />
        </mxCell>
        <mxCell id="MmMTeVmZbDbu7pug85OJ-29" value="Encryption" style="text;html=1;strokeColor=none;fillColor=none;align=center;verticalAlign=middle;whiteSpace=wrap;rounded=0;movable=1;resizable=1;rotatable=1;deletable=1;editable=1;connectable=1;" vertex="1" parent="1">
          <mxGeometry x="442" y="1492.5" width="60" height="30" as="geometry" />
        </mxCell>
      </root>
    </mxGraphModel>
  </diagram>
</mxfile>
